<svg width="247" height="34" viewBox="0 0 247 34" fill="none" xmlns="http://www.w3.org/2000/svg">
<g clip-path="url(#clip0_361_322)">
<path d="M73.5086 29.1396C72.0074 29.1396 70.6835 28.8986 69.5367 28.4167C68.39 27.9348 67.4205 27.2853 66.6282 26.4682C65.8359 25.6301 65.2313 24.6872 64.8143 23.6396C64.4181 22.592 64.22 21.5024 64.22 20.371V19.711C64.22 18.5377 64.4285 17.4272 64.8455 16.3796C65.2834 15.311 65.8984 14.3682 66.6907 13.551C67.5039 12.7129 68.4838 12.0634 69.6306 11.6024C70.7773 11.1205 72.07 10.8796 73.5086 10.8796C74.9473 10.8796 76.24 11.1205 77.3867 11.6024C78.5334 12.0634 79.503 12.7129 80.2953 13.551C81.1084 14.3682 81.7235 15.311 82.1405 16.3796C82.5575 17.4272 82.766 18.5377 82.766 19.711V20.371C82.766 21.5024 82.5575 22.592 82.1405 23.6396C81.7443 24.6872 81.1501 25.6301 80.3578 26.4682C79.5655 27.2853 78.596 27.9348 77.4492 28.4167C76.3025 28.8986 74.989 29.1396 73.5086 29.1396ZM73.5086 25.3996C74.572 25.3996 75.4685 25.1691 76.1983 24.7082C76.928 24.2263 77.4805 23.5872 77.8558 22.791C78.2311 21.9739 78.4188 21.052 78.4188 20.0253C78.4188 18.9777 78.2207 18.0558 77.8245 17.2596C77.4492 16.4424 76.8863 15.8034 76.1357 15.3424C75.406 14.8605 74.5303 14.6196 73.5086 14.6196C72.487 14.6196 71.6009 14.8605 70.8503 15.3424C70.1205 15.8034 69.5576 16.4424 69.1614 17.2596C68.7653 18.0558 68.5672 18.9777 68.5672 20.0253C68.5672 21.052 68.7549 21.9739 69.1302 22.791C69.5263 23.5872 70.0893 24.2263 70.819 24.7082C71.5487 25.1691 72.4453 25.3996 73.5086 25.3996Z" fill="#1C1B1F"/>
<path d="M17.0589 0.256714C15.3316 0.256714 13.9314 1.66382 13.9314 3.39957C13.9314 5.13532 15.3316 6.54243 17.0589 6.54243C22.6725 6.54243 27.2232 11.1155 27.2232 16.7567C27.2232 22.3979 22.6725 26.971 17.0589 26.971C11.4453 26.971 6.8946 22.3979 6.8946 16.7567C6.8946 14.5447 7.59069 12.5055 8.77513 10.8359C9.77781 9.42257 9.4505 7.45999 8.04407 6.45238C6.63764 5.44477 4.68467 5.77369 3.68199 7.18704C1.76684 9.88659 0.639648 13.194 0.639648 16.7567C0.639648 25.8694 7.99079 33.2567 17.0589 33.2567C26.127 33.2567 33.4781 25.8694 33.4781 16.7567C33.4781 7.64402 26.127 0.256714 17.0589 0.256714Z" fill="url(#paint0_linear_361_322)"/>
<path fill-rule="evenodd" clip-rule="evenodd" d="M44.1115 5.44241V28.5424H48.5525V20.8738H52.587C52.6196 20.8738 52.6521 20.8738 52.6846 20.8736L58.0601 28.5424H63.2517L57.1674 20.1254C57.2256 20.103 57.2834 20.0801 57.3407 20.0567C58.6751 19.5119 59.7072 18.6948 60.437 17.6053C61.1875 16.5157 61.5628 15.1224 61.5628 13.4253V12.9224C61.5628 11.2462 61.198 9.85288 60.4682 8.74241C59.7385 7.63193 58.696 6.80431 57.3407 6.25955C56.0064 5.71479 54.4218 5.44241 52.587 5.44241H48.5525H47.239H44.1115ZM48.5525 9.24527V17.2596H53.0561C53.8693 17.2596 54.5677 17.0919 55.1515 16.7567C55.7562 16.4215 56.2253 15.95 56.5589 15.3424C56.8925 14.7348 57.0593 14.0434 57.0593 13.2681C57.0593 12.4719 56.8925 11.77 56.5589 11.1624C56.2253 10.5548 55.7562 10.0834 55.1515 9.74812C54.5677 9.41288 53.8693 9.24527 53.0561 9.24527H48.5525ZM56.0272 18.5481H51.0545L52.6846 20.8736C52.7662 20.8731 52.8474 20.8722 52.9281 20.8706C54.5414 20.8402 55.9545 20.5918 57.1674 20.1254L56.0272 18.5481Z" fill="#1C1B1F"/>
<path d="M56.0272 18.5481H51.0545L52.6846 20.8736C52.7662 20.8731 52.8474 20.8722 52.9281 20.8706C54.5414 20.8402 55.9545 20.5918 57.1674 20.1254L56.0272 18.5481Z" fill="#1C1B1F"/>
<path fill-rule="evenodd" clip-rule="evenodd" d="M87.1667 27.1281C88.2509 28.4272 89.7729 29.0767 91.7328 29.0767H91.9205C93.234 29.0767 94.3286 28.7834 95.2043 28.1967C96.08 27.61 96.7368 26.7405 97.1746 25.5881C97.2956 25.2698 97.3998 24.9299 97.4873 24.5684V28.5424H100.928V11.4453H96.5804V21.5338C96.5804 22.6443 96.2572 23.5243 95.6109 24.1738C94.9854 24.8234 94.1722 25.1481 93.1714 25.1481C92.1706 25.1481 91.3784 24.8443 90.7946 24.2367C90.2108 23.6081 89.9189 22.77 89.9189 21.7224V11.4453H85.5717V21.3453C85.5717 23.9015 86.1033 25.8291 87.1667 27.1281ZM97.8314 21.2824C97.8314 22.4636 97.7279 23.5111 97.521 24.4249C97.51 24.4731 97.4988 24.5209 97.4873 24.5684V21.2824H97.8314Z" fill="#1C1B1F"/>
<path d="M97.8314 21.2824H97.4873V24.5684C97.4988 24.5209 97.51 24.4731 97.521 24.4249C97.7279 23.5111 97.8314 22.4636 97.8314 21.2824Z" fill="#1C1B1F"/>
<path fill-rule="evenodd" clip-rule="evenodd" d="M105.296 11.4767V28.5424H109.643V18.5167C109.643 17.4062 109.966 16.5262 110.612 15.8767C111.28 15.2062 112.145 14.871 113.208 14.871C114.251 14.871 115.064 15.1957 115.648 15.8453C116.252 16.4948 116.555 17.3434 116.555 18.391V28.5424H120.902V18.7681C120.902 16.17 120.381 14.2215 119.338 12.9224C118.296 11.6024 116.763 10.9424 114.741 10.9424H114.553C113.198 10.9424 112.061 11.2357 111.144 11.8224C110.248 12.4091 109.57 13.2891 109.111 14.4624C108.962 14.8379 108.837 15.2445 108.736 15.6822V11.4767H105.296ZM108.423 18.7996C108.423 17.7126 108.513 16.7403 108.692 15.8826C108.706 15.8151 108.721 15.7483 108.736 15.6822V18.7996H108.423Z" fill="#1C1B1F"/>
<path d="M108.423 18.7996H108.736V15.6822C108.721 15.7483 108.706 15.8151 108.692 15.8826C108.513 16.7403 108.423 17.7126 108.423 18.7996Z" fill="#1C1B1F"/>
<path fill-rule="evenodd" clip-rule="evenodd" d="M128.703 28.4482C129.704 28.8882 130.798 29.1082 131.987 29.1082C133.321 29.1082 134.51 28.8253 135.552 28.2596C136.615 27.6729 137.47 26.8034 138.117 25.651C138.23 25.4455 138.334 25.2314 138.429 25.0085V28.5425H141.87V5.59961H137.522V13.9083C136.955 12.9999 136.235 12.3046 135.364 11.8225C134.364 11.2358 133.196 10.9425 131.862 10.9425C130.652 10.9425 129.547 11.1729 128.547 11.6339C127.567 12.0739 126.722 12.692 126.013 13.4882C125.325 14.2844 124.783 15.2168 124.387 16.2853C124.012 17.3539 123.824 18.4958 123.824 19.711V20.371C123.824 21.6072 124.022 22.7596 124.418 23.8282C124.814 24.8758 125.377 25.7977 126.107 26.5939C126.837 27.3901 127.702 28.0082 128.703 28.4482ZM137.522 17.2282V13.9083C137.621 14.0657 137.715 14.2294 137.804 14.3996C138.409 15.552 138.742 16.9977 138.805 18.7368L137.522 17.2282ZM135.302 24.8653C134.593 25.2425 133.811 25.431 132.956 25.431C132.039 25.431 131.215 25.211 130.486 24.771C129.777 24.331 129.214 23.7129 128.797 22.9168C128.38 22.0996 128.171 21.1463 128.171 20.0568C128.171 18.9672 128.369 18.0139 128.765 17.1968C129.182 16.3796 129.745 15.751 130.454 15.311C131.184 14.8501 132.018 14.6196 132.956 14.6196C133.79 14.6196 134.562 14.8082 135.271 15.1853C135.98 15.5415 136.553 16.0653 136.991 16.7568C137.429 17.4272 137.647 18.2653 137.647 19.271V20.5282C137.647 21.5339 137.429 22.4139 136.991 23.1682C136.574 23.9015 136.011 24.4672 135.302 24.8653Z" fill="#1C1B1F"/>
<path d="M138.805 18.7368C138.742 16.9977 138.409 15.552 137.804 14.3996C137.715 14.2294 137.621 14.0657 137.522 13.9083V17.2282L138.805 18.7368Z" fill="#1C1B1F"/>
<path fill-rule="evenodd" clip-rule="evenodd" d="M149.945 28.3853C151.05 28.8882 152.333 29.1396 153.792 29.1396C155.189 29.1396 156.43 28.8986 157.514 28.4167C158.619 27.9348 159.526 27.2539 160.235 26.3739C160.944 25.4939 161.423 24.4672 161.673 23.2939H157.67C157.483 23.9224 157.055 24.4567 156.388 24.8967C155.721 25.3158 154.855 25.5253 153.792 25.5253C152.729 25.5253 151.853 25.2948 151.165 24.8339C150.477 24.352 149.966 23.7024 149.633 22.8853C149.411 22.3285 149.263 21.7209 149.189 21.0624H161.955V19.491C161.955 17.9824 161.642 16.5786 161.017 15.2796C160.391 13.9596 159.453 12.9015 158.202 12.1053C156.972 11.2882 155.439 10.8796 153.604 10.8796C152.207 10.8796 150.977 11.131 149.914 11.6339C148.851 12.1158 147.954 12.7758 147.224 13.6139C146.515 14.431 145.973 15.3739 145.598 16.4424C145.244 17.4901 145.066 18.5796 145.066 19.711V20.3082C145.066 21.3977 145.244 22.4663 145.598 23.5139C145.973 24.5615 146.515 25.5148 147.224 26.3739C147.954 27.212 148.861 27.8824 149.945 28.3853ZM149.263 18.391H157.802C157.725 17.8477 157.598 17.3553 157.42 16.9139C157.107 16.1386 156.628 15.5415 155.981 15.1224C155.356 14.7034 154.564 14.4939 153.604 14.4939C152.645 14.4939 151.832 14.7139 151.165 15.1539C150.498 15.5939 149.987 16.2329 149.633 17.071C149.469 17.4709 149.346 17.9109 149.263 18.391ZM149.263 18.391H146.912V21.0624H149.189C149.186 21.0395 149.183 21.0164 149.181 20.9933C149.148 20.6819 149.132 20.3592 149.132 20.0253C149.132 19.4368 149.176 18.8921 149.263 18.391Z" fill="#1C1B1F"/>
<path d="M146.912 18.391V21.0624H149.189L149.181 20.9933C149.148 20.6819 149.132 20.3592 149.132 20.0253C149.132 19.4368 149.176 18.8921 149.263 18.391H146.912Z" fill="#1C1B1F"/>
<path fill-rule="evenodd" clip-rule="evenodd" d="M168.714 28.4482C169.715 28.8882 170.809 29.1082 171.998 29.1082C173.332 29.1082 174.52 28.8253 175.563 28.2596C176.626 27.6729 177.481 26.8034 178.127 25.651C178.241 25.4455 178.345 25.2314 178.44 25.0085V28.5425H181.88V5.59961H177.533V13.9083C176.965 12.9999 176.246 12.3047 175.375 11.8225C174.374 11.2358 173.207 10.9425 171.873 10.9425C170.663 10.9425 169.558 11.1729 168.557 11.6339C167.577 12.0739 166.733 12.692 166.024 13.4882C165.336 14.2844 164.794 15.2168 164.398 16.2853C164.023 17.3539 163.835 18.4958 163.835 19.711V20.371C163.835 21.6072 164.033 22.7596 164.429 23.8282C164.825 24.8758 165.388 25.7977 166.118 26.5939C166.848 27.3901 167.713 28.0082 168.714 28.4482ZM177.533 17.2282V13.9083C177.632 14.0657 177.725 14.2295 177.815 14.3996C178.419 15.552 178.753 16.9977 178.816 18.7368L177.533 17.2282ZM175.313 24.8653C174.604 25.2425 173.822 25.431 172.967 25.431C172.05 25.431 171.226 25.211 170.496 24.771C169.788 24.331 169.225 23.7129 168.808 22.9168C168.391 22.0996 168.182 21.1463 168.182 20.0568C168.182 18.9672 168.38 18.0139 168.776 17.1968C169.193 16.3796 169.756 15.751 170.465 15.311C171.195 14.8501 172.029 14.6196 172.967 14.6196C173.801 14.6196 174.573 14.8082 175.281 15.1853C175.99 15.5415 176.564 16.0653 177.002 16.7568C177.439 17.4272 177.658 18.2653 177.658 19.271V20.5282C177.658 21.5339 177.439 22.4139 177.002 23.1682C176.585 23.9015 176.022 24.4672 175.313 24.8653Z" fill="#1C1B1F"/>
<path d="M178.816 18.7368C178.753 16.9977 178.419 15.552 177.815 14.3996C177.725 14.2295 177.632 14.0657 177.533 13.9083V17.2282L178.816 18.7368Z" fill="#1C1B1F"/>
<path fill-rule="evenodd" clip-rule="evenodd" d="M191.279 5.61276V28.0029H193.675V25.3038H194.289V28.0029H203.934V25.3038H194.289V5.61276H191.279Z" fill="#1C1B1F"/>
<path d="M193.675 28.0029H194.289V25.3038H193.675V28.0029Z" fill="#1C1B1F"/>
<path fill-rule="evenodd" clip-rule="evenodd" d="M207.741 13.9554V28.0029H210.689V13.9554H207.741ZM207.741 11.6244V13.9554H205.222V11.6244H207.741ZM207.096 8.46521C207.423 8.81282 207.915 8.98662 208.57 8.98662C209.225 8.98662 209.707 8.81282 210.014 8.46521C210.341 8.1176 210.505 7.67797 210.505 7.14634C210.505 6.6147 210.341 6.17507 210.014 5.82746C209.707 5.47985 209.225 5.30605 208.57 5.30605C207.915 5.30605 207.423 5.47985 207.096 5.82746C206.789 6.17507 206.635 6.6147 206.635 7.14634C206.635 7.67797 206.789 8.1176 207.096 8.46521Z" fill="#1C1B1F"/>
<path d="M210.689 11.6244H207.741V13.9554H210.689V11.6244Z" fill="#1C1B1F"/>
<path fill-rule="evenodd" clip-rule="evenodd" d="M213.688 11.6244L219.278 28.0029H220.015H221.428H222.226L221.8 26.7241L222.105 25.6719H223.578V28.0029H224.223L229.076 11.6244H226.189L222.105 25.6719H221.448L216.759 11.6244H213.688Z" fill="#1C1B1F"/>
<path d="M223.578 28.0029V25.6719H222.105L221.8 26.7241L222.226 28.0029H223.578Z" fill="#1C1B1F"/>
<path fill-rule="evenodd" clip-rule="evenodd" d="M235.275 27.8189C236.319 28.3096 237.558 28.555 238.992 28.555C240.282 28.555 241.439 28.3403 242.462 27.9109C243.486 27.4815 244.336 26.8578 245.012 26.0399C245.687 25.222 246.138 24.2508 246.363 23.1261H243.599C243.435 23.8827 242.944 24.5473 242.125 25.1198C241.326 25.6923 240.282 25.9786 238.992 25.9786C237.763 25.9786 236.749 25.7128 235.951 25.1811C235.152 24.629 234.558 23.8929 234.169 22.9728C233.86 22.183 233.68 21.314 233.631 20.3657H246.64V19.0468C246.64 17.6769 246.353 16.3887 245.78 15.1822C245.227 13.9758 244.367 12.9944 243.2 12.2378C242.053 11.4608 240.589 11.0723 238.807 11.0723C237.435 11.0723 236.237 11.3176 235.214 11.8084C234.21 12.2787 233.381 12.9228 232.726 13.7407C232.07 14.5381 231.579 15.4378 231.251 16.4398C230.944 17.4417 230.791 18.4743 230.791 19.5376V20.0897C230.791 21.1325 230.944 22.1549 231.251 23.1568C231.579 24.1587 232.07 25.0687 232.726 25.8866C233.381 26.684 234.231 27.3281 235.275 27.8189ZM233.747 18.1574H243.742C243.657 17.4872 243.497 16.884 243.261 16.3478C242.892 15.489 242.34 14.8244 241.602 14.3541C240.865 13.8838 239.934 13.6487 238.807 13.6487C237.64 13.6487 236.668 13.9145 235.889 14.4461C235.132 14.9778 234.558 15.7037 234.169 16.6238C233.98 17.0971 233.839 17.6083 233.747 18.1574ZM233.747 18.1574H232.081V20.3657H233.631C233.63 20.3611 233.63 20.3564 233.63 20.3517C233.621 20.1751 233.616 19.9957 233.616 19.8136C233.616 19.2278 233.66 18.6757 233.747 18.1574Z" fill="#1C1B1F"/>
<path d="M232.081 18.1574V20.3657H233.631L233.63 20.3517C233.621 20.1751 233.616 19.9957 233.616 19.8136C233.616 19.2278 233.66 18.6757 233.747 18.1574H232.081Z" fill="#1C1B1F"/>
</g>
<defs>
<linearGradient id="paint0_linear_361_322" x1="123.64" y1="0.256714" x2="123.64" y2="33.2567" gradientUnits="userSpaceOnUse">
<stop stop-color="#01B3FF"/>
<stop offset="1" stop-color="#0167CD"/>
</linearGradient>
<clipPath id="clip0_361_322">
<rect width="246" height="33" fill="white" transform="translate(0.639648 0.256714)"/>
</clipPath>
</defs>
</svg>
