<svg width="25" height="25" viewBox="0 0 25 25" fill="none" xmlns="http://www.w3.org/2000/svg">
<g clip-path="url(#clip0_361_323)">
<mask id="mask0_361_323" style="mask-type:alpha" maskUnits="userSpaceOnUse" x="0" y="0" width="25" height="25">
<rect x="0.639648" y="0.256714" width="24" height="24" fill="#D9D9D9"/>
</mask>
<g mask="url(#mask0_361_323)">
<path d="M6.63965 20.2567C6.08965 20.2567 5.61882 20.0609 5.22715 19.6692C4.83548 19.2775 4.63965 18.8067 4.63965 18.2567C4.63965 17.7067 4.83548 17.2359 5.22715 16.8442C5.61882 16.4525 6.08965 16.2567 6.63965 16.2567C7.18965 16.2567 7.66048 16.4525 8.05215 16.8442C8.44382 17.2359 8.63965 17.7067 8.63965 18.2567C8.63965 18.8067 8.44382 19.2775 8.05215 19.6692C7.66048 20.0609 7.18965 20.2567 6.63965 20.2567ZM12.6396 20.2567C12.0896 20.2567 11.6188 20.0609 11.2271 19.6692C10.8355 19.2775 10.6396 18.8067 10.6396 18.2567C10.6396 17.7067 10.8355 17.2359 11.2271 16.8442C11.6188 16.4525 12.0896 16.2567 12.6396 16.2567C13.1896 16.2567 13.6605 16.4525 14.0521 16.8442C14.4438 17.2359 14.6396 17.7067 14.6396 18.2567C14.6396 18.8067 14.4438 19.2775 14.0521 19.6692C13.6605 20.0609 13.1896 20.2567 12.6396 20.2567ZM18.6396 20.2567C18.0896 20.2567 17.6188 20.0609 17.2271 19.6692C16.8355 19.2775 16.6396 18.8067 16.6396 18.2567C16.6396 17.7067 16.8355 17.2359 17.2271 16.8442C17.6188 16.4525 18.0896 16.2567 18.6396 16.2567C19.1896 16.2567 19.6605 16.4525 20.0521 16.8442C20.4438 17.2359 20.6396 17.7067 20.6396 18.2567C20.6396 18.8067 20.4438 19.2775 20.0521 19.6692C19.6605 20.0609 19.1896 20.2567 18.6396 20.2567ZM6.63965 14.2567C6.08965 14.2567 5.61882 14.0609 5.22715 13.6692C4.83548 13.2775 4.63965 12.8067 4.63965 12.2567C4.63965 11.7067 4.83548 11.2359 5.22715 10.8442C5.61882 10.4525 6.08965 10.2567 6.63965 10.2567C7.18965 10.2567 7.66048 10.4525 8.05215 10.8442C8.44382 11.2359 8.63965 11.7067 8.63965 12.2567C8.63965 12.8067 8.44382 13.2775 8.05215 13.6692C7.66048 14.0609 7.18965 14.2567 6.63965 14.2567ZM12.6396 14.2567C12.0896 14.2567 11.6188 14.0609 11.2271 13.6692C10.8355 13.2775 10.6396 12.8067 10.6396 12.2567C10.6396 11.7067 10.8355 11.2359 11.2271 10.8442C11.6188 10.4525 12.0896 10.2567 12.6396 10.2567C13.1896 10.2567 13.6605 10.4525 14.0521 10.8442C14.4438 11.2359 14.6396 11.7067 14.6396 12.2567C14.6396 12.8067 14.4438 13.2775 14.0521 13.6692C13.6605 14.0609 13.1896 14.2567 12.6396 14.2567ZM18.6396 14.2567C18.0896 14.2567 17.6188 14.0609 17.2271 13.6692C16.8355 13.2775 16.6396 12.8067 16.6396 12.2567C16.6396 11.7067 16.8355 11.2359 17.2271 10.8442C17.6188 10.4525 18.0896 10.2567 18.6396 10.2567C19.1896 10.2567 19.6605 10.4525 20.0521 10.8442C20.4438 11.2359 20.6396 11.7067 20.6396 12.2567C20.6396 12.8067 20.4438 13.2775 20.0521 13.6692C19.6605 14.0609 19.1896 14.2567 18.6396 14.2567ZM6.63965 8.25671C6.08965 8.25671 5.61882 8.06088 5.22715 7.66921C4.83548 7.27755 4.63965 6.80671 4.63965 6.25671C4.63965 5.70671 4.83548 5.23588 5.22715 4.84421C5.61882 4.45255 6.08965 4.25671 6.63965 4.25671C7.18965 4.25671 7.66048 4.45255 8.05215 4.84421C8.44382 5.23588 8.63965 5.70671 8.63965 6.25671C8.63965 6.80671 8.44382 7.27755 8.05215 7.66921C7.66048 8.06088 7.18965 8.25671 6.63965 8.25671ZM12.6396 8.25671C12.0896 8.25671 11.6188 8.06088 11.2271 7.66921C10.8355 7.27755 10.6396 6.80671 10.6396 6.25671C10.6396 5.70671 10.8355 5.23588 11.2271 4.84421C11.6188 4.45255 12.0896 4.25671 12.6396 4.25671C13.1896 4.25671 13.6605 4.45255 14.0521 4.84421C14.4438 5.23588 14.6396 5.70671 14.6396 6.25671C14.6396 6.80671 14.4438 7.27755 14.0521 7.66921C13.6605 8.06088 13.1896 8.25671 12.6396 8.25671ZM18.6396 8.25671C18.0896 8.25671 17.6188 8.06088 17.2271 7.66921C16.8355 7.27755 16.6396 6.80671 16.6396 6.25671C16.6396 5.70671 16.8355 5.23588 17.2271 4.84421C17.6188 4.45255 18.0896 4.25671 18.6396 4.25671C19.1896 4.25671 19.6605 4.45255 20.0521 4.84421C20.4438 5.23588 20.6396 5.70671 20.6396 6.25671C20.6396 6.80671 20.4438 7.27755 20.0521 7.66921C19.6605 8.06088 19.1896 8.25671 18.6396 8.25671Z" fill="#1C1B1F"/>
</g>
</g>
<defs>
<clipPath id="clip0_361_323">
<rect width="24" height="24" fill="white" transform="translate(0.639648 0.256714)"/>
</clipPath>
</defs>
</svg>
