<svg width="25" height="25" viewBox="0 0 25 25" fill="none" xmlns="http://www.w3.org/2000/svg">
<g clip-path="url(#clip0_361_325)">
<mask id="mask0_361_325" style="mask-type:alpha" maskUnits="userSpaceOnUse" x="0" y="0" width="25" height="25">
<rect x="0.639648" y="0.256714" width="24" height="24" fill="#D9D9D9"/>
</mask>
<g mask="url(#mask0_361_325)">
<path d="M4.63965 20.2567C4.08965 20.2567 3.61882 20.0609 3.22715 19.6692C2.83548 19.2775 2.63965 18.8067 2.63965 18.2567V6.25671C2.63965 5.70671 2.83548 5.23588 3.22715 4.84421C3.61882 4.45255 4.08965 4.25671 4.63965 4.25671H20.6396C21.1896 4.25671 21.6605 4.45255 22.0521 4.84421C22.4438 5.23588 22.6396 5.70671 22.6396 6.25671V18.2567C22.6396 18.8067 22.4438 19.2775 22.0521 19.6692C21.6605 20.0609 21.1896 20.2567 20.6396 20.2567H4.63965ZM20.6396 8.25671L13.1646 12.9317C13.0813 12.9817 12.9938 13.0192 12.9021 13.0442C12.8105 13.0692 12.723 13.0817 12.6396 13.0817C12.5563 13.0817 12.4688 13.0692 12.3771 13.0442C12.2855 13.0192 12.198 12.9817 12.1146 12.9317L4.63965 8.25671V18.2567H20.6396V8.25671ZM12.6396 11.2567L20.6396 6.25671H4.63965L12.6396 11.2567ZM4.63965 8.50671V7.03171V7.05671V7.04421V8.50671Z" fill="#1C1B1F"/>
</g>
</g>
<defs>
<clipPath id="clip0_361_325">
<rect width="24" height="24" fill="white" transform="translate(0.639648 0.256714)"/>
</clipPath>
</defs>
</svg>
