<svg width="25" height="25" viewBox="0 0 25 25" fill="none" xmlns="http://www.w3.org/2000/svg">
<g clip-path="url(#clip0_361_324)">
<mask id="mask0_361_324" style="mask-type:alpha" maskUnits="userSpaceOnUse" x="0" y="0" width="25" height="25">
<rect x="0.639648" y="0.256714" width="24" height="24" fill="#D9D9D9"/>
</mask>
<g mask="url(#mask0_361_324)">
<path d="M6.63965 18.2567L4.33965 20.5567C4.02298 20.8734 3.66048 20.9442 3.25215 20.7692C2.84382 20.5942 2.63965 20.2817 2.63965 19.8317V4.25671C2.63965 3.70671 2.83548 3.23588 3.22715 2.84421C3.61882 2.45255 4.08965 2.25671 4.63965 2.25671H20.6396C21.1896 2.25671 21.6605 2.45255 22.0521 2.84421C22.4438 3.23588 22.6396 3.70671 22.6396 4.25671V16.2567C22.6396 16.8067 22.4438 17.2775 22.0521 17.6692C21.6605 18.0609 21.1896 18.2567 20.6396 18.2567H6.63965ZM5.78965 16.2567H20.6396V4.25671H4.63965V17.3817L5.78965 16.2567ZM7.63965 14.2567H13.6396C13.923 14.2567 14.1605 14.1609 14.3521 13.9692C14.5438 13.7775 14.6396 13.54 14.6396 13.2567C14.6396 12.9734 14.5438 12.7359 14.3521 12.5442C14.1605 12.3525 13.923 12.2567 13.6396 12.2567H7.63965C7.35632 12.2567 7.11882 12.3525 6.92715 12.5442C6.73548 12.7359 6.63965 12.9734 6.63965 13.2567C6.63965 13.54 6.73548 13.7775 6.92715 13.9692C7.11882 14.1609 7.35632 14.2567 7.63965 14.2567ZM7.63965 11.2567H17.6396C17.923 11.2567 18.1605 11.1609 18.3521 10.9692C18.5438 10.7775 18.6396 10.54 18.6396 10.2567C18.6396 9.97338 18.5438 9.73588 18.3521 9.54421C18.1605 9.35255 17.923 9.25671 17.6396 9.25671H7.63965C7.35632 9.25671 7.11882 9.35255 6.92715 9.54421C6.73548 9.73588 6.63965 9.97338 6.63965 10.2567C6.63965 10.54 6.73548 10.7775 6.92715 10.9692C7.11882 11.1609 7.35632 11.2567 7.63965 11.2567ZM7.63965 8.25671H17.6396C17.923 8.25671 18.1605 8.16088 18.3521 7.96921C18.5438 7.77755 18.6396 7.54005 18.6396 7.25671C18.6396 6.97338 18.5438 6.73588 18.3521 6.54421C18.1605 6.35255 17.923 6.25671 17.6396 6.25671H7.63965C7.35632 6.25671 7.11882 6.35255 6.92715 6.54421C6.73548 6.73588 6.63965 6.97338 6.63965 7.25671C6.63965 7.54005 6.73548 7.77755 6.92715 7.96921C7.11882 8.16088 7.35632 8.25671 7.63965 8.25671Z" fill="#1C1B1F"/>
</g>
</g>
<defs>
<clipPath id="clip0_361_324">
<rect width="24" height="24" fill="white" transform="translate(0.639648 0.256714)"/>
</clipPath>
</defs>
</svg>
