<svg width="238" height="59" viewBox="0 0 238 59" fill="none" xmlns="http://www.w3.org/2000/svg">
<g clip-path="url(#clip0_267_115)">
<g filter="url(#filter0_ii_267_115)">
<path fill-rule="evenodd" clip-rule="evenodd" d="M14.1216 0.76001C11.6252 0.76001 9.60156 2.78369 9.60156 5.28001V6.57418L42.7746 28.4601C44.6225 29.6793 47.1005 29.6793 48.9484 28.4601L82.8256 6.10962V5.28001C82.8256 2.78368 80.8019 0.76001 78.3056 0.76001H14.1216ZM82.8256 13.0345L52.4763 33.0574C48.5165 35.67 43.2065 35.67 39.2466 33.0574L9.60156 13.499V50.48C9.60156 52.9763 11.6252 55 14.1216 55H78.3056C80.8019 55 82.8256 52.9763 82.8256 50.48V13.0345Z" fill="url(#paint0_linear_267_115)"/>
<path fill-rule="evenodd" clip-rule="evenodd" d="M14.1216 0.76001C11.6252 0.76001 9.60156 2.78369 9.60156 5.28001V6.57418L42.7746 28.4601C44.6225 29.6793 47.1005 29.6793 48.9484 28.4601L82.8256 6.10962V5.28001C82.8256 2.78368 80.8019 0.76001 78.3056 0.76001H14.1216ZM82.8256 13.0345L52.4763 33.0574C48.5165 35.67 43.2065 35.67 39.2466 33.0574L9.60156 13.499V50.48C9.60156 52.9763 11.6252 55 14.1216 55H78.3056C80.8019 55 82.8256 52.9763 82.8256 50.48V13.0345Z" fill="url(#paint1_linear_267_115)" fill-opacity="0.2"/>
</g>
<g filter="url(#filter1_ii_267_115)">
<path fill-rule="evenodd" clip-rule="evenodd" d="M82.8254 43.349C85.2747 46.5752 86.8938 49.0129 87.8233 50.8054C88.2971 51.7192 88.5252 52.3434 88.6273 52.7385C88.3249 52.7464 87.8713 52.7241 87.2243 52.6251C86.0837 52.4506 84.6275 52.0868 82.8583 51.5534C79.9642 50.6806 76.455 49.4239 72.4481 47.9889L72.4478 47.9888L72.4438 47.9874C71.5443 47.6652 70.6196 47.3341 69.6713 46.9963C59.4264 43.3474 46.631 39.0015 34.3041 37.5738C22.0071 36.1497 9.65367 37.5709 0.804003 46.0692C-0.0962804 46.9338 -0.125242 48.3644 0.739291 49.2647C1.60382 50.165 3.03449 50.194 3.93476 49.3294C11.3399 42.2183 22.0015 40.6993 33.7841 42.0638C45.5368 43.425 57.8858 47.5968 68.1547 51.2543C69.0746 51.5819 69.9798 51.9062 70.8673 52.2241L70.8753 52.2269C74.8875 53.6641 78.5376 54.9715 81.5534 55.8809C83.399 56.4374 85.0903 56.8712 86.5407 57.0931C87.9089 57.3024 89.412 57.3846 90.6743 56.9175C91.3646 56.662 92.0508 56.2169 92.5473 55.4941C93.0403 54.7763 93.2169 53.973 93.2213 53.2215C93.2294 51.8274 92.647 50.2889 91.8359 48.7248C90.2988 45.7604 87.3481 41.6226 82.8254 36.0398V43.349Z" fill="url(#paint2_linear_267_115)"/>
</g>
<path d="M176.076 52V22.24H180.012V51.808C180.012 52.672 180.14 53.328 180.396 53.776C180.684 54.192 181.244 54.4 182.076 54.4H182.844V58H181.74C179.628 58 178.156 57.44 177.324 56.32C176.492 55.2 176.076 53.76 176.076 52Z" fill="#1C1B1F"/>
<path d="M168.838 28.192H164.422V23.776H168.838V28.192ZM168.598 57.76H164.662V34H168.598V57.76Z" fill="#1C1B1F"/>
<path d="M159.327 58C157.855 58 156.671 57.664 155.775 56.992C154.911 56.32 154.303 55.488 153.951 54.496C152.383 55.872 150.959 56.848 149.679 57.424C148.399 57.968 147.119 58.24 145.839 58.24C143.759 58.24 142.223 57.568 141.231 56.224C140.239 54.88 139.743 53.232 139.743 51.28C139.743 49.968 139.983 48.8 140.463 47.776C140.943 46.752 141.759 45.952 142.911 45.376C144.063 44.768 145.615 44.464 147.567 44.464C148.431 44.464 149.375 44.528 150.399 44.656C151.423 44.752 152.463 44.88 153.519 45.04V41.824C153.519 40.032 153.119 38.816 152.319 38.176C151.551 37.504 150.415 37.168 148.911 37.168C146.863 37.168 144.575 37.728 142.047 38.848L140.799 35.584C142.271 34.912 143.679 34.4 145.023 34.048C146.367 33.696 147.727 33.52 149.103 33.52C151.343 33.52 153.055 33.888 154.239 34.624C155.423 35.36 156.239 36.336 156.687 37.552C157.135 38.768 157.359 40.096 157.359 41.536V51.808C157.359 52.544 157.503 53.168 157.791 53.68C158.079 54.16 158.655 54.4 159.519 54.4H160.047V58H159.327ZM143.631 51.232C143.631 52.32 143.887 53.2 144.399 53.872C144.911 54.544 145.647 54.88 146.607 54.88C147.439 54.88 148.399 54.64 149.487 54.16C150.575 53.648 151.919 52.64 153.519 51.136V48.112C151.343 47.76 149.423 47.584 147.759 47.584C146.287 47.584 145.231 47.888 144.591 48.496C143.951 49.104 143.631 50.016 143.631 51.232Z" fill="#1C1B1F"/>
<path d="M108.874 25.12L118.81 49.312L128.794 25.12H133.546V57.76H129.466V43.792L129.994 31.216L120.634 53.92H116.698L107.53 31.12L108.058 43.792V57.76H103.978V25.12H108.874Z" fill="#1C1B1F"/>
<path d="M122.469 17.0152C121.468 17.0152 120.586 16.8546 119.821 16.5333C119.057 16.2121 118.41 15.7791 117.882 15.2343C117.354 14.6756 116.951 14.047 116.673 13.3486C116.409 12.6502 116.277 11.9238 116.277 11.1695V10.7295C116.277 9.94731 116.416 9.20699 116.694 8.50858C116.986 7.7962 117.396 7.16763 117.924 6.62286C118.466 6.06413 119.119 5.63112 119.884 5.32382C120.648 5.00255 121.51 4.84191 122.469 4.84191C123.428 4.84191 124.29 5.00255 125.055 5.32382C125.819 5.63112 126.465 6.06413 126.994 6.62286C127.536 7.16763 127.946 7.7962 128.224 8.50858C128.502 9.20699 128.641 9.94731 128.641 10.7295V11.1695C128.641 11.9238 128.502 12.6502 128.224 13.3486C127.96 14.047 127.563 14.6756 127.035 15.2343C126.507 15.7791 125.861 16.2121 125.096 16.5333C124.332 16.8546 123.456 17.0152 122.469 17.0152ZM122.469 14.5219C123.178 14.5219 123.776 14.3683 124.262 14.061C124.749 13.7397 125.117 13.3137 125.367 12.7829C125.617 12.2381 125.743 11.6235 125.743 10.9391C125.743 10.2406 125.611 9.62604 125.346 9.09525C125.096 8.55048 124.721 8.12445 124.221 7.81715C123.734 7.49588 123.15 7.33525 122.469 7.33525C121.788 7.33525 121.197 7.49588 120.697 7.81715C120.21 8.12445 119.835 8.55048 119.571 9.09525C119.307 9.62604 119.175 10.2406 119.175 10.9391C119.175 11.6235 119.3 12.2381 119.55 12.7829C119.814 13.3137 120.19 13.7397 120.676 14.061C121.163 14.3683 121.76 14.5219 122.469 14.5219Z" fill="#1C1B1F"/>
<path fill-rule="evenodd" clip-rule="evenodd" d="M102.871 1.21713V16.6171H105.832V11.5047H108.521C108.543 11.5047 108.565 11.5047 108.586 11.5046L112.17 16.6171H115.631L111.575 11.0058C111.614 10.9909 111.652 10.9756 111.691 10.96C112.58 10.5968 113.268 10.052 113.755 9.3257C114.255 8.59935 114.505 7.67046 114.505 6.53903V6.20379C114.505 5.08633 114.262 4.15744 113.776 3.41713C113.289 2.67681 112.594 2.12506 111.691 1.76189C110.801 1.39871 109.745 1.21713 108.521 1.21713H105.832H104.956H102.871ZM105.832 3.75236V9.09522H108.834C109.376 9.09522 109.842 8.98348 110.231 8.75998C110.634 8.53649 110.947 8.22221 111.169 7.81713C111.392 7.41205 111.503 6.95109 111.503 6.43427C111.503 5.90348 111.392 5.43554 111.169 5.03046C110.947 4.62538 110.634 4.31109 110.231 4.0876C109.842 3.86411 109.376 3.75236 108.834 3.75236H105.832ZM110.815 9.95427H107.5L108.586 11.5046C108.641 11.5043 108.695 11.5036 108.749 11.5026C109.824 11.4823 110.766 11.3167 111.575 11.0058L110.815 9.95427Z" fill="#1C1B1F"/>
<path d="M110.815 9.95427H107.5L108.586 11.5046C108.641 11.5043 108.695 11.5036 108.749 11.5026C109.824 11.4823 110.766 11.3167 111.575 11.0058L110.815 9.95427Z" fill="#1C1B1F"/>
<path fill-rule="evenodd" clip-rule="evenodd" d="M131.575 15.6743C132.297 16.5403 133.312 16.9733 134.619 16.9733H134.744C135.619 16.9733 136.349 16.7778 136.933 16.3867C137.517 15.9955 137.955 15.4159 138.246 14.6476C138.327 14.4354 138.397 14.2088 138.455 13.9678V16.6171H140.748V5.21904H137.85V11.9448C137.85 12.6851 137.635 13.2717 137.204 13.7048C136.787 14.1378 136.245 14.3543 135.578 14.3543C134.911 14.3543 134.382 14.1517 133.993 13.7467C133.604 13.3276 133.409 12.7689 133.409 12.0705V5.21904H130.511V11.819C130.511 13.5232 130.866 14.8082 131.575 15.6743ZM138.684 11.7771C138.684 12.5646 138.615 13.2629 138.477 13.8721C138.47 13.9043 138.463 13.9361 138.455 13.9678V11.7771H138.684Z" fill="#1C1B1F"/>
<path d="M138.684 11.7771H138.455V13.9678C138.463 13.9361 138.47 13.9043 138.477 13.8721C138.615 13.2629 138.684 12.5646 138.684 11.7771Z" fill="#1C1B1F"/>
<path fill-rule="evenodd" clip-rule="evenodd" d="M143.661 5.23998V16.6171H146.559V9.93332C146.559 9.193 146.774 8.60633 147.205 8.17332C147.65 7.72633 148.227 7.50284 148.936 7.50284C149.631 7.50284 150.173 7.71935 150.562 8.15236C150.965 8.58538 151.166 9.1511 151.166 9.84951V16.6171H154.065V10.1009C154.065 8.36887 153.717 7.06982 153.022 6.20379C152.327 5.32379 151.305 4.88379 149.957 4.88379H149.832C148.929 4.88379 148.171 5.07935 147.559 5.47046C146.962 5.86157 146.51 6.44824 146.204 7.23046C146.105 7.48076 146.021 7.75182 145.954 8.04364V5.23998H143.661ZM145.746 10.1219C145.746 9.39729 145.805 8.74907 145.925 8.17725C145.934 8.13224 145.944 8.0877 145.954 8.04364V10.1219H145.746Z" fill="#1C1B1F"/>
<path d="M145.746 10.1219H145.954V8.04364C145.944 8.0877 145.934 8.13224 145.925 8.17725C145.805 8.74907 145.746 9.39729 145.746 10.1219Z" fill="#1C1B1F"/>
<path fill-rule="evenodd" clip-rule="evenodd" d="M159.265 16.5543C159.933 16.8476 160.662 16.9943 161.455 16.9943C162.344 16.9943 163.136 16.8057 163.831 16.4286C164.54 16.0375 165.11 15.4578 165.541 14.6895C165.617 14.5525 165.686 14.4098 165.75 14.2612V16.6172H168.043V1.32193H165.145V6.86106C164.766 6.25548 164.287 5.79195 163.706 5.4705C163.039 5.07939 162.261 4.88383 161.371 4.88383C160.565 4.88383 159.828 5.03748 159.161 5.34478C158.508 5.63812 157.945 6.05018 157.472 6.58097C157.014 7.11177 156.652 7.73336 156.388 8.44574C156.138 9.15812 156.013 9.91939 156.013 10.7295V11.1695C156.013 11.9937 156.145 12.7619 156.409 13.4743C156.673 14.1727 157.048 14.7873 157.535 15.3181C158.021 15.8489 158.598 16.261 159.265 16.5543ZM165.145 9.07431V6.86106C165.211 6.96598 165.273 7.07515 165.333 7.18859C165.736 7.95685 165.958 8.92066 166 10.08L165.145 9.07431ZM163.665 14.1657C163.192 14.4172 162.671 14.5429 162.101 14.5429C161.489 14.5429 160.94 14.3962 160.454 14.1029C159.981 13.8095 159.606 13.3975 159.328 12.8667C159.05 12.3219 158.911 11.6864 158.911 10.96C158.911 10.2337 159.043 9.59812 159.307 9.05336C159.585 8.50859 159.96 8.08955 160.433 7.79621C160.919 7.48891 161.475 7.33526 162.101 7.33526C162.657 7.33526 163.171 7.46097 163.644 7.7124C164.116 7.94986 164.499 8.29907 164.791 8.76002C165.082 9.20701 165.228 9.76574 165.228 10.4362V11.2743C165.228 11.9448 165.082 12.5315 164.791 13.0343C164.513 13.5232 164.137 13.9003 163.665 14.1657Z" fill="#1C1B1F"/>
<path d="M166 10.08C165.958 8.92066 165.736 7.95685 165.333 7.18859C165.273 7.07515 165.211 6.96598 165.145 6.86106V9.07431L166 10.08Z" fill="#1C1B1F"/>
<path fill-rule="evenodd" clip-rule="evenodd" d="M173.427 16.5124C174.164 16.8476 175.018 17.0152 175.991 17.0152C176.923 17.0152 177.75 16.8546 178.473 16.5333C179.209 16.2121 179.814 15.7581 180.287 15.1714C180.759 14.5848 181.079 13.9003 181.246 13.1181H178.577C178.452 13.5372 178.167 13.8933 177.722 14.1867C177.277 14.466 176.7 14.6057 175.991 14.6057C175.283 14.6057 174.699 14.4521 174.24 14.1448C173.781 13.8235 173.441 13.3905 173.218 12.8457C173.071 12.4745 172.972 12.0695 172.922 11.6305H181.433V10.5829C181.433 9.57715 181.225 8.64128 180.808 7.77525C180.391 6.89525 179.765 6.18985 178.931 5.65905C178.111 5.11429 177.09 4.84191 175.866 4.84191C174.935 4.84191 174.115 5.00953 173.406 5.34477C172.697 5.66604 172.099 6.10604 171.613 6.66477C171.14 7.20953 170.779 7.8381 170.529 8.55048C170.293 9.2489 170.174 9.97524 170.174 10.7295V11.1276C170.174 11.854 170.293 12.5664 170.529 13.2648C170.779 13.9632 171.14 14.5987 171.613 15.1714C172.099 15.7302 172.704 16.1771 173.427 16.5124ZM172.972 9.84953H178.665C178.614 9.48731 178.529 9.15906 178.41 8.86477C178.202 8.34794 177.882 7.94985 177.451 7.67048C177.034 7.39112 176.506 7.25144 175.866 7.25144C175.227 7.25144 174.685 7.3981 174.24 7.69144C173.795 7.98477 173.455 8.4108 173.218 8.96953C173.11 9.23611 173.027 9.52944 172.972 9.84953ZM172.972 9.84953H171.405V11.6305H172.922C172.921 11.6152 172.919 11.5998 172.917 11.5844C172.896 11.3768 172.885 11.1617 172.885 10.9391C172.885 10.5467 172.914 10.1836 172.972 9.84953Z" fill="#1C1B1F"/>
<path d="M171.405 9.84953V11.6305H172.922L172.917 11.5844C172.896 11.3768 172.885 11.1617 172.885 10.9391C172.885 10.5467 172.914 10.1836 172.972 9.84953H171.405Z" fill="#1C1B1F"/>
<path fill-rule="evenodd" clip-rule="evenodd" d="M185.939 16.5543C186.606 16.8476 187.336 16.9943 188.128 16.9943C189.018 16.9943 189.81 16.8057 190.505 16.4286C191.214 16.0375 191.784 15.4578 192.215 14.6895C192.291 14.5525 192.36 14.4098 192.424 14.2612V16.6172H194.717V1.32193H191.819V6.86108C191.44 6.25548 190.961 5.79196 190.38 5.4705C189.713 5.07939 188.935 4.88383 188.045 4.88383C187.239 4.88383 186.502 5.03748 185.835 5.34478C185.182 5.63812 184.619 6.05018 184.146 6.58097C183.687 7.11177 183.326 7.73336 183.062 8.44574C182.812 9.15812 182.687 9.91939 182.687 10.7295V11.1695C182.687 11.9937 182.819 12.7619 183.083 13.4743C183.347 14.1727 183.722 14.7873 184.209 15.3181C184.695 15.8489 185.272 16.261 185.939 16.5543ZM191.819 9.07431V6.86108C191.884 6.96599 191.947 7.07516 192.007 7.18859C192.41 7.95685 192.632 8.92066 192.674 10.08L191.819 9.07431ZM190.339 14.1657C189.866 14.4172 189.345 14.5429 188.775 14.5429C188.163 14.5429 187.614 14.3962 187.128 14.1029C186.655 13.8095 186.28 13.3975 186.002 12.8667C185.724 12.3219 185.585 11.6864 185.585 10.96C185.585 10.2337 185.717 9.59812 185.981 9.05336C186.259 8.50859 186.634 8.08955 187.107 7.79621C187.593 7.48891 188.149 7.33526 188.775 7.33526C189.331 7.33526 189.845 7.46097 190.318 7.7124C190.79 7.94986 191.173 8.29907 191.464 8.76002C191.756 9.20701 191.902 9.76574 191.902 10.4362V11.2743C191.902 11.9448 191.756 12.5315 191.464 13.0343C191.186 13.5232 190.811 13.9003 190.339 14.1657Z" fill="#1C1B1F"/>
<path d="M192.674 10.08C192.632 8.92066 192.41 7.95685 192.007 7.18859C191.947 7.07516 191.884 6.96599 191.819 6.86108V9.07431L192.674 10.08Z" fill="#1C1B1F"/>
<path fill-rule="evenodd" clip-rule="evenodd" d="M200.983 1.3307V16.2575H202.58V14.4581H202.99V16.2575H209.419V14.4581H202.99V1.3307H200.983Z" fill="#1C1B1F"/>
<path d="M202.58 16.2575H202.99V14.4581H202.58V16.2575Z" fill="#1C1B1F"/>
<path fill-rule="evenodd" clip-rule="evenodd" d="M211.957 6.89245V16.2575H213.923V6.89245H211.957ZM211.957 5.33843V6.89245H210.278V5.33843H211.957ZM211.527 3.23232C211.746 3.46406 212.073 3.57993 212.51 3.57993C212.947 3.57993 213.268 3.46406 213.473 3.23232C213.691 3.00058 213.8 2.7075 213.8 2.35308C213.8 1.99865 213.691 1.70557 213.473 1.47383C213.268 1.24209 212.947 1.12622 212.51 1.12622C212.073 1.12622 211.746 1.24209 211.527 1.47383C211.322 1.70557 211.22 1.99865 211.22 2.35308C211.22 2.7075 211.322 3.00058 211.527 3.23232Z" fill="#1C1B1F"/>
<path d="M213.923 5.33843H211.957V6.89245H213.923V5.33843Z" fill="#1C1B1F"/>
<path fill-rule="evenodd" clip-rule="evenodd" d="M215.922 5.33843L219.649 16.2575H220.14H221.082H221.614L221.33 15.4049L221.534 14.7034H222.515V16.2575H222.945L226.181 5.33843H224.256L221.534 14.7034H221.096L217.97 5.33843H215.922Z" fill="#1C1B1F"/>
<path d="M222.515 16.2575V14.7034H221.534L221.33 15.4049L221.614 16.2575H222.515Z" fill="#1C1B1F"/>
<path fill-rule="evenodd" clip-rule="evenodd" d="M230.313 16.1348C231.01 16.4619 231.836 16.6255 232.791 16.6255C233.651 16.6255 234.422 16.4824 235.105 16.1961C235.788 15.9098 236.354 15.4941 236.805 14.9488C237.255 14.4035 237.555 13.756 237.706 13.0063H235.863C235.753 13.5107 235.426 13.9537 234.88 14.3354C234.347 14.7171 233.651 14.9079 232.791 14.9079C231.972 14.9079 231.296 14.7307 230.764 14.3763C230.232 14.0082 229.836 13.5175 229.576 12.904C229.37 12.3776 229.25 11.7982 229.217 11.166H237.89V10.2868C237.89 9.37343 237.699 8.51463 237.316 7.71035C236.948 6.90608 236.375 6.25176 235.596 5.74738C234.832 5.22937 233.856 4.97037 232.668 4.97037C231.754 4.97037 230.955 5.13395 230.273 5.46111C229.604 5.77464 229.051 6.20405 228.614 6.74931C228.177 7.28095 227.849 7.88075 227.631 8.5487C227.426 9.21666 227.324 9.90506 227.324 10.6139V10.982C227.324 11.6772 227.426 12.3588 227.631 13.0267C227.849 13.6947 228.177 14.3013 228.614 14.8466C229.051 15.3782 229.617 15.8076 230.313 16.1348ZM229.295 9.69377H235.958C235.901 9.24701 235.795 8.84488 235.637 8.48736C235.392 7.91483 235.023 7.4718 234.532 7.15827C234.04 6.84474 233.419 6.68797 232.668 6.68797C231.89 6.68797 231.242 6.86518 230.723 7.21961C230.218 7.57403 229.836 8.05796 229.576 8.67139C229.45 8.98693 229.356 9.32773 229.295 9.69377ZM229.295 9.69377H228.184V11.166H229.217C229.217 11.1629 229.217 11.1598 229.217 11.1567C229.211 11.0389 229.208 10.9194 229.208 10.7979C229.208 10.4074 229.237 10.0393 229.295 9.69377Z" fill="#1C1B1F"/>
<path d="M228.184 9.69377V11.166H229.217L229.217 11.1567C229.211 11.0389 229.208 10.9194 229.208 10.7979C229.208 10.4074 229.237 10.0393 229.295 9.69377H228.184Z" fill="#1C1B1F"/>
</g>
<defs>
<filter id="filter0_ii_267_115" x="9.60156" y="-0.14399" width="73.2236" height="56.048" filterUnits="userSpaceOnUse" color-interpolation-filters="sRGB">
<feFlood flood-opacity="0" result="BackgroundImageFix"/>
<feBlend mode="normal" in="SourceGraphic" in2="BackgroundImageFix" result="shape"/>
<feColorMatrix in="SourceAlpha" type="matrix" values="0 0 0 0 0 0 0 0 0 0 0 0 0 0 0 0 0 0 127 0" result="hardAlpha"/>
<feOffset dy="0.904"/>
<feGaussianBlur stdDeviation="0.904"/>
<feComposite in2="hardAlpha" operator="arithmetic" k2="-1" k3="1"/>
<feColorMatrix type="matrix" values="0 0 0 0 1 0 0 0 0 1 0 0 0 0 1 0 0 0 0.47 0"/>
<feBlend mode="normal" in2="shape" result="effect1_innerShadow_267_115"/>
<feColorMatrix in="SourceAlpha" type="matrix" values="0 0 0 0 0 0 0 0 0 0 0 0 0 0 0 0 0 0 127 0" result="hardAlpha"/>
<feOffset dy="-0.904"/>
<feGaussianBlur stdDeviation="0.904"/>
<feComposite in2="hardAlpha" operator="arithmetic" k2="-1" k3="1"/>
<feColorMatrix type="matrix" values="0 0 0 0 0.571794 0 0 0 0 0.571794 0 0 0 0 0.571794 0 0 0 0.26 0"/>
<feBlend mode="normal" in2="effect1_innerShadow_267_115" result="effect2_innerShadow_267_115"/>
</filter>
<filter id="filter1_ii_267_115" x="0.109375" y="35.1358" width="93.1123" height="23.0285" filterUnits="userSpaceOnUse" color-interpolation-filters="sRGB">
<feFlood flood-opacity="0" result="BackgroundImageFix"/>
<feBlend mode="normal" in="SourceGraphic" in2="BackgroundImageFix" result="shape"/>
<feColorMatrix in="SourceAlpha" type="matrix" values="0 0 0 0 0 0 0 0 0 0 0 0 0 0 0 0 0 0 127 0" result="hardAlpha"/>
<feOffset dy="0.904"/>
<feGaussianBlur stdDeviation="0.904"/>
<feComposite in2="hardAlpha" operator="arithmetic" k2="-1" k3="1"/>
<feColorMatrix type="matrix" values="0 0 0 0 1 0 0 0 0 1 0 0 0 0 1 0 0 0 0.41 0"/>
<feBlend mode="normal" in2="shape" result="effect1_innerShadow_267_115"/>
<feColorMatrix in="SourceAlpha" type="matrix" values="0 0 0 0 0 0 0 0 0 0 0 0 0 0 0 0 0 0 127 0" result="hardAlpha"/>
<feOffset dy="-0.904"/>
<feGaussianBlur stdDeviation="0.904"/>
<feComposite in2="hardAlpha" operator="arithmetic" k2="-1" k3="1"/>
<feColorMatrix type="matrix" values="0 0 0 0 0.347054 0 0 0 0 0.347054 0 0 0 0 0.347054 0 0 0 0.25 0"/>
<feBlend mode="normal" in2="effect1_innerShadow_267_115" result="effect2_innerShadow_267_115"/>
</filter>
<linearGradient id="paint0_linear_267_115" x1="46.2136" y1="0.76001" x2="46.2136" y2="55" gradientUnits="userSpaceOnUse">
<stop stop-color="#4EB1BA"/>
<stop offset="1" stop-color="#80D8B3"/>
</linearGradient>
<linearGradient id="paint1_linear_267_115" x1="27.9076" y1="-8.16104" x2="64.9886" y2="72.106" gradientUnits="userSpaceOnUse">
<stop stop-color="white" stop-opacity="0"/>
<stop offset="0.3124" stop-color="white"/>
<stop offset="0.3125" stop-color="white" stop-opacity="0"/>
<stop offset="0.692708" stop-color="white" stop-opacity="0"/>
</linearGradient>
<linearGradient id="paint2_linear_267_115" x1="-35.155" y1="65.4723" x2="91.8686" y2="58.3849" gradientUnits="userSpaceOnUse">
<stop stop-color="#FFB905"/>
<stop offset="1" stop-color="#FFD600"/>
</linearGradient>
<clipPath id="clip0_267_115">
<rect width="237.78" height="57.48" fill="white" transform="translate(0.109375 0.76001)"/>
</clipPath>
</defs>
</svg>
