<svg width="25" height="25" viewBox="0 0 25 25" fill="none" xmlns="http://www.w3.org/2000/svg">
<g clip-path="url(#clip0_358_247)">
<mask id="mask0_358_247" style="mask-type:alpha" maskUnits="userSpaceOnUse" x="0" y="0" width="25" height="25">
<rect x="0.413086" y="0.84082" width="24" height="24" fill="#D9D9D9"/>
</mask>
<g mask="url(#mask0_358_247)">
<path d="M13.4131 21.8408C13.1298 21.8408 12.8923 21.745 12.7006 21.5533C12.5089 21.3617 12.4131 21.1242 12.4131 20.8408C12.4131 20.5575 12.5089 20.32 12.7006 20.1283C12.8923 19.9367 13.1298 19.8408 13.4131 19.8408H19.4131V5.84082H13.4131C13.1298 5.84082 12.8923 5.74499 12.7006 5.55332C12.5089 5.36165 12.4131 5.12415 12.4131 4.84082C12.4131 4.55749 12.5089 4.31999 12.7006 4.12832C12.8923 3.93665 13.1298 3.84082 13.4131 3.84082H19.4131C19.9631 3.84082 20.4339 4.03665 20.8256 4.42832C21.2173 4.81999 21.4131 5.29082 21.4131 5.84082V19.8408C21.4131 20.3908 21.2173 20.8617 20.8256 21.2533C20.4339 21.645 19.9631 21.8408 19.4131 21.8408H13.4131ZM11.5881 13.8408H4.41309C4.12975 13.8408 3.89225 13.745 3.70059 13.5533C3.50892 13.3617 3.41309 13.1242 3.41309 12.8408C3.41309 12.5575 3.50892 12.32 3.70059 12.1283C3.89225 11.9367 4.12975 11.8408 4.41309 11.8408H11.5881L9.71309 9.96582C9.52975 9.78249 9.43809 9.55749 9.43809 9.29082C9.43809 9.02415 9.52975 8.79082 9.71309 8.59082C9.89642 8.39082 10.1298 8.28665 10.4131 8.27832C10.6964 8.26999 10.9381 8.36582 11.1381 8.56582L14.7131 12.1408C14.9131 12.3408 15.0131 12.5742 15.0131 12.8408C15.0131 13.1075 14.9131 13.3408 14.7131 13.5408L11.1381 17.1158C10.9381 17.3158 10.7006 17.4117 10.4256 17.4033C10.1506 17.395 9.91309 17.2908 9.71309 17.0908C9.52975 16.8908 9.44225 16.6533 9.45059 16.3783C9.45892 16.1033 9.55475 15.8742 9.73809 15.6908L11.5881 13.8408Z" fill="white"/>
</g>
</g>
<defs>
<clipPath id="clip0_358_247">
<rect width="24" height="24" fill="white" transform="translate(0.413086 0.84082)"/>
</clipPath>
</defs>
</svg>
