<svg width="165" height="23" viewBox="0 0 165 23" fill="none" xmlns="http://www.w3.org/2000/svg">
<g clip-path="url(#clip0_358_246)">
<path d="M48.9924 19.5961C47.9916 19.5961 47.109 19.4354 46.3445 19.1142C45.58 18.7929 44.9336 18.3599 44.4054 17.8151C43.8772 17.2564 43.4742 16.6278 43.1962 15.9294C42.9321 15.231 42.8 14.5046 42.8 13.7504V13.3104C42.8 12.5281 42.939 11.7878 43.217 11.0894C43.5089 10.377 43.919 9.74845 44.4471 9.20369C44.9892 8.64496 45.6425 8.21194 46.407 7.90464C47.1715 7.58337 48.0333 7.42274 48.9924 7.42274C49.9515 7.42274 50.8133 7.58337 51.5778 7.90464C52.3423 8.21194 52.9886 8.64496 53.5168 9.20369C54.0589 9.74845 54.469 10.377 54.747 11.0894C55.025 11.7878 55.164 12.5281 55.164 13.3104V13.7504C55.164 14.5046 55.025 15.231 54.747 15.9294C54.4829 16.6278 54.0867 17.2564 53.5585 17.8151C53.0303 18.3599 52.384 18.7929 51.6195 19.1142C50.855 19.4354 49.9793 19.5961 48.9924 19.5961ZM48.9924 17.1027C49.7013 17.1027 50.299 16.9491 50.7855 16.6418C51.272 16.3205 51.6403 15.8945 51.8905 15.3637C52.1407 14.8189 52.2658 14.2043 52.2658 13.5199C52.2658 12.8215 52.1338 12.2069 51.8697 11.6761C51.6195 11.1313 51.2442 10.7053 50.7438 10.398C50.2573 10.0767 49.6735 9.91607 48.9924 9.91607C48.3113 9.91607 47.7206 10.0767 47.2202 10.398C46.7337 10.7053 46.3584 11.1313 46.0943 11.6761C45.8302 12.2069 45.6981 12.8215 45.6981 13.5199C45.6981 14.2043 45.8232 14.8189 46.0734 15.3637C46.3375 15.8945 46.7128 16.3205 47.1993 16.6418C47.6858 16.9491 48.2835 17.1027 48.9924 17.1027Z" fill="#1C1B1F"/>
<path d="M11.3592 0.34082C10.2077 0.34082 9.27427 1.27889 9.27427 2.43606C9.27427 3.59323 10.2077 4.5313 11.3592 4.5313C15.1016 4.5313 18.1354 7.58002 18.1354 11.3408C18.1354 15.1016 15.1016 18.1503 11.3592 18.1503C7.61686 18.1503 4.58305 15.1016 4.58305 11.3408C4.58305 9.86617 5.04711 8.50667 5.83674 7.39362C6.50519 6.45139 6.28699 5.14301 5.34937 4.47127C4.41175 3.79953 3.10977 4.0188 2.44131 4.96104C1.16454 6.76074 0.413086 8.9657 0.413086 11.3408C0.413086 17.416 5.31385 22.3408 11.3592 22.3408C17.4046 22.3408 22.3054 17.416 22.3054 11.3408C22.3054 5.26569 17.4046 0.34082 11.3592 0.34082Z" fill="url(#paint0_linear_358_246)"/>
<path fill-rule="evenodd" clip-rule="evenodd" d="M29.3943 3.79795V19.198H32.355V14.0856H35.0447C35.0664 14.0856 35.0881 14.0855 35.1097 14.0854L38.6934 19.198H42.1544L38.0982 13.5866C38.1371 13.5717 38.1756 13.5564 38.2138 13.5408C39.1034 13.1776 39.7915 12.6329 40.278 11.9065C40.7784 11.1802 41.0285 10.2513 41.0285 9.11986V8.78462C41.0285 7.66716 40.7853 6.73827 40.2988 5.99795C39.8123 5.25763 39.1173 4.70589 38.2138 4.34271C37.3242 3.97954 36.2678 3.79795 35.0447 3.79795H32.355H31.4793H29.3943ZM32.355 6.33319V11.676H35.3574C35.8995 11.676 36.3651 11.5643 36.7543 11.3408C37.1574 11.1173 37.4702 10.803 37.6926 10.398C37.915 9.99287 38.0262 9.53192 38.0262 9.01509C38.0262 8.4843 37.915 8.01636 37.6926 7.61128C37.4702 7.2062 37.1574 6.89192 36.7543 6.66843C36.3651 6.44493 35.8995 6.33319 35.3574 6.33319H32.355ZM37.3381 12.5351H34.023L35.1097 14.0854C35.1641 14.0851 35.2183 14.0845 35.272 14.0834C36.3476 14.0631 37.2896 13.8975 38.0982 13.5866L37.3381 12.5351Z" fill="#1C1B1F"/>
<path d="M37.3381 12.5351H34.023L35.1097 14.0854C35.1641 14.0851 35.2183 14.0845 35.272 14.0834C36.3476 14.0631 37.2896 13.8975 38.0982 13.5866L37.3381 12.5351Z" fill="#1C1B1F"/>
<path fill-rule="evenodd" clip-rule="evenodd" d="M58.0978 18.2551C58.8206 19.1211 59.8353 19.5542 61.1419 19.5542H61.267C62.1426 19.5542 62.8724 19.3586 63.4562 18.9675C64.04 18.5764 64.4778 17.9967 64.7697 17.2284C64.8504 17.0162 64.9199 16.7896 64.9782 16.5486V19.198H67.2717V7.79986H64.3736V14.5256C64.3736 15.2659 64.1581 15.8526 63.7272 16.2856C63.3102 16.7186 62.7681 16.9351 62.1009 16.9351C61.4338 16.9351 60.9056 16.7326 60.5164 16.3275C60.1272 15.9084 59.9326 15.3497 59.9326 14.6513V7.79986H57.0344V14.3999C57.0344 16.104 57.3889 17.3891 58.0978 18.2551ZM65.2076 14.358C65.2076 15.1454 65.1386 15.8437 65.0006 16.453C64.9933 16.4851 64.9859 16.517 64.9782 16.5486V14.358H65.2076Z" fill="#1C1B1F"/>
<path d="M65.2076 14.358H64.9782V16.5486C64.9859 16.517 64.9933 16.4851 65.0006 16.453C65.1386 15.8437 65.2076 15.1454 65.2076 14.358Z" fill="#1C1B1F"/>
<path fill-rule="evenodd" clip-rule="evenodd" d="M70.1838 7.82081V19.198H73.0819V12.5141C73.0819 11.7738 73.2974 11.1872 73.7283 10.7541C74.1731 10.3072 74.7499 10.0837 75.4588 10.0837C76.1538 10.0837 76.6959 10.3002 77.0851 10.7332C77.4882 11.1662 77.6897 11.7319 77.6897 12.4303V19.198H80.5879V12.6818C80.5879 10.9497 80.2404 9.65065 79.5454 8.78462C78.8504 7.90462 77.8287 7.46462 76.4804 7.46462H76.3554C75.4519 7.46462 74.6943 7.66017 74.0827 8.05128C73.485 8.44239 73.0333 9.02906 72.7275 9.81128C72.6279 10.0616 72.5445 10.3326 72.4773 10.6245V7.82081H70.1838ZM72.2688 12.7027C72.2688 11.9781 72.3285 11.3299 72.448 10.7581C72.4574 10.7131 72.4671 10.6685 72.4773 10.6245V12.7027H72.2688Z" fill="#1C1B1F"/>
<path d="M72.2688 12.7027H72.4773V10.6245C72.4671 10.6685 72.4574 10.7131 72.448 10.7581C72.3285 11.3299 72.2688 11.9781 72.2688 12.7027Z" fill="#1C1B1F"/>
<path fill-rule="evenodd" clip-rule="evenodd" d="M85.7886 19.1351C86.4558 19.4285 87.1855 19.5751 87.9778 19.5751C88.8674 19.5751 89.6597 19.3866 90.3547 19.0094C91.0636 18.6183 91.6335 18.0386 92.0644 17.2704C92.1399 17.1334 92.2094 16.9906 92.2729 16.842V19.198H94.5664V3.90275H91.6683V9.44189C91.2897 8.8363 90.8102 8.37278 90.2296 8.05132C89.5624 7.66021 88.784 7.46466 87.8944 7.46466C87.0882 7.46466 86.3516 7.61831 85.6844 7.92561C85.0311 8.21894 84.4681 8.631 83.9955 9.1618C83.5368 9.69259 83.1754 10.3142 82.9113 11.0266C82.6611 11.7389 82.536 12.5002 82.536 13.3104V13.7504C82.536 14.5745 82.6681 15.3428 82.9322 16.0551C83.1963 16.7535 83.5716 17.3681 84.0581 17.8989C84.5446 18.4297 85.1214 18.8418 85.7886 19.1351ZM91.6683 11.6551V9.44189C91.7338 9.5468 91.7964 9.65598 91.8559 9.76942C92.259 10.5377 92.4814 11.5015 92.5231 12.6608L91.6683 11.6551ZM90.1879 16.7466C89.7153 16.998 89.1941 17.1237 88.6242 17.1237C88.0126 17.1237 87.4635 16.977 86.977 16.6837C86.5044 16.3904 86.1292 15.9783 85.8512 15.4475C85.5732 14.9028 85.4342 14.2672 85.4342 13.5408C85.4342 12.8145 85.5662 12.1789 85.8303 11.6342C86.1083 11.0894 86.4836 10.6704 86.9562 10.377C87.4427 10.0697 87.9987 9.91608 88.6242 9.91608C89.1802 9.91608 89.6945 10.0418 90.1671 10.2932C90.6397 10.5307 91.0219 10.8799 91.3138 11.3408C91.6057 11.7878 91.7517 12.3466 91.7517 13.017V13.8551C91.7517 14.5256 91.6057 15.1123 91.3138 15.6151C91.0358 16.104 90.6605 16.4812 90.1879 16.7466Z" fill="#1C1B1F"/>
<path d="M92.5231 12.6608C92.4814 11.5015 92.259 10.5377 91.8559 9.76942C91.7964 9.65598 91.7338 9.5468 91.6683 9.44189V11.6551L92.5231 12.6608Z" fill="#1C1B1F"/>
<path fill-rule="evenodd" clip-rule="evenodd" d="M99.9502 19.0932C100.687 19.4284 101.542 19.5961 102.515 19.5961C103.446 19.5961 104.273 19.4354 104.996 19.1142C105.733 18.7929 106.337 18.3389 106.81 17.7523C107.282 17.1656 107.602 16.4811 107.769 15.6989H105.1C104.975 16.118 104.69 16.4742 104.245 16.7675C103.8 17.0469 103.224 17.1865 102.515 17.1865C101.806 17.1865 101.222 17.0329 100.763 16.7256C100.305 16.4043 99.9641 15.9713 99.7417 15.4265C99.5939 15.0554 99.4953 14.6503 99.4457 14.2113H107.957V13.1637C107.957 12.158 107.748 11.2221 107.331 10.3561C106.914 9.47607 106.289 8.77067 105.455 8.23988C104.634 7.69512 103.613 7.42274 102.39 7.42274C101.458 7.42274 100.638 7.59035 99.9293 7.92559C99.2204 8.24686 98.6227 8.68686 98.1362 9.24559C97.6636 9.79035 97.3022 10.4189 97.052 11.1313C96.8157 11.8297 96.6976 12.5561 96.6976 13.3104V13.7084C96.6976 14.4348 96.8157 15.1472 97.052 15.8456C97.3022 16.544 97.6636 17.1796 98.1362 17.7523C98.6227 18.311 99.2274 18.758 99.9502 19.0932ZM99.4951 12.4304H105.188C105.137 12.0681 105.052 11.7399 104.933 11.4456C104.725 10.9288 104.405 10.5307 103.974 10.2513C103.557 9.97194 103.029 9.83226 102.39 9.83226C101.75 9.83226 101.208 9.97893 100.763 10.2723C100.319 10.5656 99.978 10.9916 99.7417 11.5504C99.6329 11.8169 99.5507 12.1103 99.4951 12.4304ZM99.4951 12.4304H97.9277V14.2113H99.4457C99.4439 14.196 99.4423 14.1806 99.4407 14.1652C99.4189 13.9576 99.4081 13.7425 99.4081 13.5199C99.4081 13.1276 99.4371 12.7644 99.4951 12.4304Z" fill="#1C1B1F"/>
<path d="M97.9277 12.4304V14.2113H99.4457L99.4407 14.1652C99.4189 13.9576 99.4081 13.7425 99.4081 13.5199C99.4081 13.1276 99.4371 12.7644 99.4951 12.4304H97.9277Z" fill="#1C1B1F"/>
<path fill-rule="evenodd" clip-rule="evenodd" d="M112.463 19.1351C113.13 19.4285 113.859 19.5751 114.652 19.5751C115.541 19.5751 116.334 19.3866 117.029 19.0094C117.738 18.6183 118.307 18.0386 118.738 17.2704C118.814 17.1334 118.883 16.9906 118.947 16.842V19.198H121.24V3.90275H118.342V9.44191C117.964 8.83631 117.484 8.37278 116.904 8.05132C116.236 7.66021 115.458 7.46466 114.568 7.46466C113.762 7.46466 113.025 7.61831 112.358 7.92561C111.705 8.21894 111.142 8.631 110.669 9.1618C110.211 9.69259 109.849 10.3142 109.585 11.0266C109.335 11.7389 109.21 12.5002 109.21 13.3104V13.7504C109.21 14.5745 109.342 15.3428 109.606 16.0551C109.87 16.7535 110.245 17.3681 110.732 17.8989C111.218 18.4297 111.795 18.8418 112.463 19.1351ZM118.342 11.6551V9.44191C118.408 9.54681 118.47 9.65598 118.53 9.76942C118.933 10.5377 119.155 11.5015 119.197 12.6608L118.342 11.6551ZM116.862 16.7466C116.389 16.998 115.868 17.1237 115.298 17.1237C114.686 17.1237 114.137 16.977 113.651 16.6837C113.178 16.3904 112.803 15.9783 112.525 15.4475C112.247 14.9028 112.108 14.2672 112.108 13.5408C112.108 12.8145 112.24 12.1789 112.504 11.6342C112.782 11.0894 113.157 10.6704 113.63 10.377C114.117 10.0697 114.673 9.91608 115.298 9.91608C115.854 9.91608 116.368 10.0418 116.841 10.2932C117.314 10.5307 117.696 10.8799 117.988 11.3408C118.28 11.7878 118.426 12.3466 118.426 13.017V13.8551C118.426 14.5256 118.28 15.1123 117.988 15.6151C117.71 16.104 117.334 16.4812 116.862 16.7466Z" fill="#1C1B1F"/>
<path d="M119.197 12.6608C119.155 11.5015 118.933 10.5377 118.53 9.76942C118.47 9.65598 118.408 9.54681 118.342 9.44191V11.6551L119.197 12.6608Z" fill="#1C1B1F"/>
<path fill-rule="evenodd" clip-rule="evenodd" d="M127.506 3.91152V18.8383H129.103V17.0389H129.513V18.8383H135.943V17.0389H129.513V3.91152H127.506Z" fill="#1C1B1F"/>
<path d="M129.103 18.8383H129.513V17.0389H129.103V18.8383Z" fill="#1C1B1F"/>
<path fill-rule="evenodd" clip-rule="evenodd" d="M138.481 9.47327V18.8383H140.446V9.47327H138.481ZM138.481 7.91925V9.47327H136.801V7.91925H138.481ZM138.05 5.81315C138.269 6.04489 138.597 6.16076 139.033 6.16076C139.47 6.16076 139.791 6.04489 139.996 5.81315C140.214 5.58141 140.323 5.28833 140.323 4.9339C140.323 4.57948 140.214 4.28639 139.996 4.05465C139.791 3.82291 139.47 3.70704 139.033 3.70704C138.597 3.70704 138.269 3.82291 138.05 4.05465C137.846 4.28639 137.743 4.57948 137.743 4.9339C137.743 5.28833 137.846 5.58141 138.05 5.81315Z" fill="#1C1B1F"/>
<path d="M140.446 7.91925H138.481V9.47327H140.446V7.91925Z" fill="#1C1B1F"/>
<path fill-rule="evenodd" clip-rule="evenodd" d="M142.445 7.91925L146.172 18.8383H146.663H147.605H148.138L147.853 17.9857L148.057 17.2843H149.039V18.8383H149.469L152.704 7.91925H150.779L148.057 17.2843H147.619L144.493 7.91925H142.445Z" fill="#1C1B1F"/>
<path d="M149.039 18.8383V17.2843H148.057L147.853 17.9857L148.138 18.8383H149.039Z" fill="#1C1B1F"/>
<path fill-rule="evenodd" clip-rule="evenodd" d="M156.837 18.7156C157.533 19.0428 158.359 19.2063 159.314 19.2063C160.174 19.2063 160.946 19.0632 161.628 18.7769C162.311 18.4907 162.877 18.0749 163.328 17.5296C163.778 16.9844 164.079 16.3369 164.229 15.5871H162.386C162.277 16.0915 161.949 16.5345 161.403 16.9162C160.871 17.2979 160.174 17.4887 159.314 17.4887C158.495 17.4887 157.82 17.3115 157.287 16.9571C156.755 16.589 156.359 16.0983 156.1 15.4849C155.893 14.9584 155.774 14.379 155.74 13.7468H164.413V12.8676C164.413 11.9542 164.222 11.0954 163.84 10.2912C163.471 9.4869 162.898 8.83258 162.12 8.32821C161.355 7.8102 160.379 7.5512 159.192 7.5512C158.277 7.5512 157.478 7.71478 156.796 8.04194C156.127 8.35547 155.574 8.78487 155.137 9.33014C154.7 9.86178 154.373 10.4616 154.154 11.1295C153.95 11.7975 153.847 12.4859 153.847 13.1947V13.5628C153.847 14.258 153.95 14.9396 154.154 15.6076C154.373 16.2755 154.7 16.8821 155.137 17.4274C155.574 17.959 156.141 18.3884 156.837 18.7156ZM155.818 12.2746H162.481C162.425 11.8278 162.318 11.4257 162.161 11.0682C161.915 10.4957 161.546 10.0526 161.055 9.73909C160.563 9.42556 159.942 9.2688 159.192 9.2688C158.413 9.2688 157.765 9.44601 157.246 9.80043C156.741 10.1549 156.359 10.6388 156.1 11.2522C155.973 11.5678 155.879 11.9086 155.818 12.2746ZM155.818 12.2746H154.707V13.7468H155.74C155.74 13.7437 155.74 13.7406 155.74 13.7375C155.734 13.6198 155.731 13.5002 155.731 13.3788C155.731 12.9882 155.76 12.6201 155.818 12.2746Z" fill="#1C1B1F"/>
<path d="M154.707 12.2746V13.7468H155.74L155.74 13.7375C155.734 13.6198 155.731 13.5002 155.731 13.3788C155.731 12.9882 155.76 12.6201 155.818 12.2746H154.707Z" fill="#1C1B1F"/>
</g>
<defs>
<linearGradient id="paint0_linear_358_246" x1="82.4131" y1="0.34082" x2="82.4131" y2="22.3408" gradientUnits="userSpaceOnUse">
<stop stop-color="#01B3FF"/>
<stop offset="1" stop-color="#0167CD"/>
</linearGradient>
<clipPath id="clip0_358_246">
<rect width="164" height="22" fill="white" transform="translate(0.413086 0.34082)"/>
</clipPath>
</defs>
</svg>
