<svg width="104" height="64" viewBox="0 0 104 64" fill="none" xmlns="http://www.w3.org/2000/svg">
<g clip-path="url(#clip0_359_259)">
<g filter="url(#filter0_ii_359_259)">
<path fill-rule="evenodd" clip-rule="evenodd" d="M16.4131 0.840698C13.6517 0.840698 11.4131 3.07927 11.4131 5.8407V7.27242L48.1087 31.4824C50.1529 32.8311 52.894 32.8311 54.9382 31.4824L92.4131 6.7583V5.8407C92.4131 3.07927 90.1745 0.840698 87.4131 0.840698H16.4131ZM92.4131 14.4186L58.8408 36.5679C54.4604 39.4579 48.5865 39.4579 44.2061 36.5679L11.4131 14.9327V55.8407C11.4131 58.6021 13.6517 60.8407 16.4131 60.8407H87.4131C90.1745 60.8407 92.4131 58.6021 92.4131 55.8407V14.4186Z" fill="url(#paint0_linear_359_259)"/>
<path fill-rule="evenodd" clip-rule="evenodd" d="M16.4131 0.840698C13.6517 0.840698 11.4131 3.07927 11.4131 5.8407V7.27242L48.1087 31.4824C50.1529 32.8311 52.894 32.8311 54.9382 31.4824L92.4131 6.7583V5.8407C92.4131 3.07927 90.1745 0.840698 87.4131 0.840698H16.4131ZM92.4131 14.4186L58.8408 36.5679C54.4604 39.4579 48.5865 39.4579 44.2061 36.5679L11.4131 14.9327V55.8407C11.4131 58.6021 13.6517 60.8407 16.4131 60.8407H87.4131C90.1745 60.8407 92.4131 58.6021 92.4131 55.8407V14.4186Z" fill="url(#paint1_linear_359_259)" fill-opacity="0.2"/>
</g>
<g filter="url(#filter1_ii_359_259)">
<path fill-rule="evenodd" clip-rule="evenodd" d="M92.4131 47.9523C95.1225 51.5212 96.9136 54.2178 97.9417 56.2006C98.4659 57.2114 98.7182 57.9019 98.8311 58.3389C98.4966 58.3477 97.9949 58.323 97.2791 58.2135C96.0174 58.0204 94.4066 57.6181 92.4495 57.028C89.248 56.0626 85.366 54.6723 80.9334 53.0848L80.9332 53.0848C79.9368 52.7279 78.9126 52.3611 77.8621 51.987C66.5293 47.9505 52.3751 43.1431 38.7391 41.5639C25.1362 39.9885 11.4709 41.5607 1.68148 50.9615C0.6856 51.9178 0.653549 53.5004 1.60989 54.4963C2.56623 55.4921 4.14882 55.5242 5.1447 54.5679C13.3362 46.7015 25.13 45.0212 38.1639 46.5307C51.1647 48.0364 64.825 52.6512 76.1844 56.6971C77.2031 57.0599 78.2054 57.4189 79.188 57.7709L79.1939 57.773C83.6322 59.3628 87.6699 60.8091 91.006 61.8151C93.0476 62.4307 94.9185 62.9105 96.5229 63.156C98.0364 63.3875 99.6991 63.4784 101.095 62.9617C101.859 62.6791 102.618 62.1868 103.167 61.3872C103.713 60.5932 103.908 59.7045 103.913 58.8733C103.922 57.3311 103.278 55.6292 102.381 53.899C100.68 50.6198 97.4161 46.0426 92.4131 39.8669V47.9523Z" fill="url(#paint2_linear_359_259)"/>
</g>
</g>
<defs>
<filter id="filter0_ii_359_259" x="11.4131" y="-0.159302" width="81" height="62" filterUnits="userSpaceOnUse" color-interpolation-filters="sRGB">
<feFlood flood-opacity="0" result="BackgroundImageFix"/>
<feBlend mode="normal" in="SourceGraphic" in2="BackgroundImageFix" result="shape"/>
<feColorMatrix in="SourceAlpha" type="matrix" values="0 0 0 0 0 0 0 0 0 0 0 0 0 0 0 0 0 0 127 0" result="hardAlpha"/>
<feOffset dy="1"/>
<feGaussianBlur stdDeviation="1"/>
<feComposite in2="hardAlpha" operator="arithmetic" k2="-1" k3="1"/>
<feColorMatrix type="matrix" values="0 0 0 0 1 0 0 0 0 1 0 0 0 0 1 0 0 0 0.47 0"/>
<feBlend mode="normal" in2="shape" result="effect1_innerShadow_359_259"/>
<feColorMatrix in="SourceAlpha" type="matrix" values="0 0 0 0 0 0 0 0 0 0 0 0 0 0 0 0 0 0 127 0" result="hardAlpha"/>
<feOffset dy="-1"/>
<feGaussianBlur stdDeviation="1"/>
<feComposite in2="hardAlpha" operator="arithmetic" k2="-1" k3="1"/>
<feColorMatrix type="matrix" values="0 0 0 0 0.571794 0 0 0 0 0.571794 0 0 0 0 0.571794 0 0 0 0.26 0"/>
<feBlend mode="normal" in2="effect1_innerShadow_359_259" result="effect2_innerShadow_359_259"/>
</filter>
<filter id="filter1_ii_359_259" x="0.913086" y="38.8669" width="103" height="25.4739" filterUnits="userSpaceOnUse" color-interpolation-filters="sRGB">
<feFlood flood-opacity="0" result="BackgroundImageFix"/>
<feBlend mode="normal" in="SourceGraphic" in2="BackgroundImageFix" result="shape"/>
<feColorMatrix in="SourceAlpha" type="matrix" values="0 0 0 0 0 0 0 0 0 0 0 0 0 0 0 0 0 0 127 0" result="hardAlpha"/>
<feOffset dy="1"/>
<feGaussianBlur stdDeviation="1"/>
<feComposite in2="hardAlpha" operator="arithmetic" k2="-1" k3="1"/>
<feColorMatrix type="matrix" values="0 0 0 0 1 0 0 0 0 1 0 0 0 0 1 0 0 0 0.41 0"/>
<feBlend mode="normal" in2="shape" result="effect1_innerShadow_359_259"/>
<feColorMatrix in="SourceAlpha" type="matrix" values="0 0 0 0 0 0 0 0 0 0 0 0 0 0 0 0 0 0 127 0" result="hardAlpha"/>
<feOffset dy="-1"/>
<feGaussianBlur stdDeviation="1"/>
<feComposite in2="hardAlpha" operator="arithmetic" k2="-1" k3="1"/>
<feColorMatrix type="matrix" values="0 0 0 0 0.347054 0 0 0 0 0.347054 0 0 0 0 0.347054 0 0 0 0.25 0"/>
<feBlend mode="normal" in2="effect1_innerShadow_359_259" result="effect2_innerShadow_359_259"/>
</filter>
<linearGradient id="paint0_linear_359_259" x1="51.9131" y1="0.840698" x2="51.9131" y2="60.8407" gradientUnits="userSpaceOnUse">
<stop stop-color="#4EB1BA"/>
<stop offset="1" stop-color="#80D8B3"/>
</linearGradient>
<linearGradient id="paint1_linear_359_259" x1="31.6631" y1="-9.02772" x2="72.6819" y2="79.7632" gradientUnits="userSpaceOnUse">
<stop stop-color="white" stop-opacity="0"/>
<stop offset="0.3124" stop-color="white"/>
<stop offset="0.3125" stop-color="white" stop-opacity="0"/>
<stop offset="0.692708" stop-color="white" stop-opacity="0"/>
</linearGradient>
<linearGradient id="paint2_linear_359_259" x1="-38.0962" y1="72.4251" x2="102.417" y2="64.585" gradientUnits="userSpaceOnUse">
<stop stop-color="#FFB905"/>
<stop offset="1" stop-color="#FFD600"/>
</linearGradient>
<clipPath id="clip0_359_259">
<rect width="103" height="62.5001" fill="white" transform="translate(0.913086 0.840698)"/>
</clipPath>
</defs>
</svg>
