<svg width="95" height="61" viewBox="0 0 95 61" fill="none" xmlns="http://www.w3.org/2000/svg">
<g clip-path="url(#clip0_359_257)">
<path fill-rule="evenodd" clip-rule="evenodd" d="M17.1854 5.34082C17.1854 2.5794 19.4239 0.34082 22.1854 0.34082H82.1854C84.9468 0.34082 87.1854 2.5794 87.1854 5.34082V55.3408C87.1854 58.1022 84.9468 60.3408 82.1854 60.3408H22.1854L22.1568 60.3407H17.1857H7.04575C6.39624 60.3407 6.10045 59.5479 6.59584 59.1278C10.4682 55.8444 15.559 51.5278 17.127 41.8591C17.1669 41.613 17.1854 41.3605 17.1854 41.1112V5.34082ZM50.3583 47.3408H54.8756C56.3266 45.8126 57.5996 44.1467 58.6947 42.3429C59.8172 40.5642 60.6796 38.5976 61.2819 36.4431C61.8842 34.2636 62.1854 31.846 62.1854 29.1905C62.1854 26.535 61.8705 24.13 61.2408 21.9755C60.6385 19.821 59.7761 17.8669 58.6537 16.1133C57.5586 14.3596 56.2992 12.7688 54.8756 11.3408H50.3583C52.0557 13.0193 53.493 14.7604 54.6702 16.5642C55.8748 18.368 56.7783 20.3095 57.3806 22.3888C58.0103 24.4431 58.3251 26.7103 58.3251 29.1905C58.3251 31.6707 58.024 33.963 57.4217 36.0673C56.8194 38.1467 55.9159 40.1007 54.7113 41.9296C53.5341 43.7834 52.0831 45.5872 50.3583 47.3408ZM40.1854 45.3116L43.3475 46.4014L47.2488 36.7437L44.0045 35.6164L40.1854 45.3116ZM42.1976 22.0131V26.5976H46.9613V22.0131H42.1976Z" fill="url(#paint0_linear_359_257)"/>
<path fill-rule="evenodd" clip-rule="evenodd" d="M17.1854 5.34082C17.1854 2.5794 19.4239 0.34082 22.1854 0.34082H82.1854C84.9468 0.34082 87.1854 2.5794 87.1854 5.34082V55.3408C87.1854 58.1022 84.9468 60.3408 82.1854 60.3408H22.1854L22.1568 60.3407H17.1857H7.04575C6.39624 60.3407 6.10045 59.5479 6.59584 59.1278C10.4682 55.8444 15.559 51.5278 17.127 41.8591C17.1669 41.613 17.1854 41.3605 17.1854 41.1112V5.34082ZM50.3583 47.3408H54.8756C56.3266 45.8126 57.5996 44.1467 58.6947 42.3429C59.8172 40.5642 60.6796 38.5976 61.2819 36.4431C61.8842 34.2636 62.1854 31.846 62.1854 29.1905C62.1854 26.535 61.8705 24.13 61.2408 21.9755C60.6385 19.821 59.7761 17.8669 58.6537 16.1133C57.5586 14.3596 56.2992 12.7688 54.8756 11.3408H50.3583C52.0557 13.0193 53.493 14.7604 54.6702 16.5642C55.8748 18.368 56.7783 20.3095 57.3806 22.3888C58.0103 24.4431 58.3251 26.7103 58.3251 29.1905C58.3251 31.6707 58.024 33.963 57.4217 36.0673C56.8194 38.1467 55.9159 40.1007 54.7113 41.9296C53.5341 43.7834 52.0831 45.5872 50.3583 47.3408ZM40.1854 45.3116L43.3475 46.4014L47.2488 36.7437L44.0045 35.6164L40.1854 45.3116ZM42.1976 22.0131V26.5976H46.9613V22.0131H42.1976Z" fill="url(#paint1_linear_359_257)" fill-opacity="0.2"/>
<g filter="url(#filter0_ii_359_257)">
<path fill-rule="evenodd" clip-rule="evenodd" d="M17.186 35.1212C10.545 39.077 6.18275 41.936 3.78703 43.9329C3.15627 44.4586 2.6061 44.9699 2.16975 45.4657C1.76705 45.9232 1.29763 46.5476 1.06332 47.3057C0.783511 48.211 0.837392 49.4041 1.72048 50.359C2.41112 51.1059 3.30777 51.351 3.83173 51.4532C4.94631 51.6707 6.3904 51.5954 7.84866 51.4365C9.38622 51.2691 11.2406 50.97 13.3186 50.5897C16.1154 50.0779 19.4249 49.3983 23.0451 48.655L23.0454 48.6549C24.7891 48.2969 26.6049 47.9241 28.4702 47.548C40.045 45.2146 53.7271 42.7176 65.5551 42.4412C71.4698 42.303 76.7784 42.7258 81.0624 43.9285C85.3469 45.1314 88.3637 47.0418 90.0886 49.7012C90.84 50.8596 92.3881 51.1896 93.5465 50.4382C94.7049 49.6869 95.0349 48.1387 94.2835 46.9804C91.6601 42.9358 87.3688 40.5057 82.414 39.1146C77.4586 37.7234 71.5968 37.2987 65.4384 37.4426C53.1202 37.7304 39.0456 40.3155 27.4821 42.6466C25.5654 43.033 23.7228 43.4114 21.9675 43.7718L21.9673 43.7719C18.3827 44.508 15.1623 45.1693 12.4185 45.6714C11.1476 45.904 10.002 46.098 8.99037 46.2469C10.8871 44.8912 13.5733 43.1513 17.186 40.9558V35.1212ZM4.74175 46.534C4.74253 46.5336 4.7555 46.5362 4.77834 46.5436C4.75238 46.5382 4.74096 46.5345 4.74175 46.534Z" fill="url(#paint2_linear_359_257)"/>
</g>
</g>
<defs>
<filter id="filter0_ii_359_257" x="0.913086" y="34.1212" width="93.7734" height="18.4668" filterUnits="userSpaceOnUse" color-interpolation-filters="sRGB">
<feFlood flood-opacity="0" result="BackgroundImageFix"/>
<feBlend mode="normal" in="SourceGraphic" in2="BackgroundImageFix" result="shape"/>
<feColorMatrix in="SourceAlpha" type="matrix" values="0 0 0 0 0 0 0 0 0 0 0 0 0 0 0 0 0 0 127 0" result="hardAlpha"/>
<feOffset dy="1"/>
<feGaussianBlur stdDeviation="1"/>
<feComposite in2="hardAlpha" operator="arithmetic" k2="-1" k3="1"/>
<feColorMatrix type="matrix" values="0 0 0 0 1 0 0 0 0 1 0 0 0 0 1 0 0 0 0.41 0"/>
<feBlend mode="normal" in2="shape" result="effect1_innerShadow_359_257"/>
<feColorMatrix in="SourceAlpha" type="matrix" values="0 0 0 0 0 0 0 0 0 0 0 0 0 0 0 0 0 0 127 0" result="hardAlpha"/>
<feOffset dy="-1"/>
<feGaussianBlur stdDeviation="1"/>
<feComposite in2="hardAlpha" operator="arithmetic" k2="-1" k3="1"/>
<feColorMatrix type="matrix" values="0 0 0 0 0.347054 0 0 0 0 0.347054 0 0 0 0 0.347054 0 0 0 0.25 0"/>
<feBlend mode="normal" in2="effect1_innerShadow_359_257" result="effect2_innerShadow_359_257"/>
</filter>
<linearGradient id="paint0_linear_359_257" x1="58.7304" y1="0.34082" x2="58.7304" y2="60.3408" gradientUnits="userSpaceOnUse">
<stop stop-color="#FCC24C"/>
<stop offset="1" stop-color="#F26421"/>
</linearGradient>
<linearGradient id="paint1_linear_359_257" x1="43.2735" y1="-6.65918" x2="24.6196" y2="64.2906" gradientUnits="userSpaceOnUse">
<stop stop-color="white" stop-opacity="0"/>
<stop offset="0.3124" stop-color="white"/>
<stop offset="0.3125" stop-color="white" stop-opacity="0"/>
<stop offset="0.692708" stop-color="white" stop-opacity="0"/>
</linearGradient>
<linearGradient id="paint2_linear_359_257" x1="-30.0705" y1="58.5671" x2="106.803" y2="46.8968" gradientUnits="userSpaceOnUse">
<stop stop-color="#FFB905"/>
<stop offset="1" stop-color="#FFD600"/>
</linearGradient>
<clipPath id="clip0_359_257">
<rect width="93.7733" height="60" fill="white" transform="translate(0.913086 0.34082)"/>
</clipPath>
</defs>
</svg>
