<svg width="222" height="62" viewBox="0 0 222 62" fill="none" xmlns="http://www.w3.org/2000/svg">
<g clip-path="url(#clip0_358_248)">
<path d="M212.743 57.8368C215.943 57.8368 217.543 56.7488 217.543 54.5728C217.543 53.6448 217.255 52.9088 216.679 52.3648C216.103 51.8208 215.047 51.3568 213.511 50.9728L210.871 50.3008C208.919 49.8208 207.463 48.9888 206.503 47.8048C205.543 46.5888 205.063 45.1488 205.063 43.4848C205.063 42.2688 205.335 41.1488 205.879 40.1248C206.423 39.0688 207.287 38.2208 208.471 37.5808C209.655 36.9408 211.191 36.6208 213.079 36.6208C214.295 36.6208 215.527 36.7648 216.775 37.0528C218.055 37.3088 219.351 37.7569 220.663 38.3969L219.415 41.7088C217.079 40.6528 214.967 40.1248 213.079 40.1248C210.295 40.1248 208.903 41.1649 208.903 43.2449C208.903 44.0449 209.159 44.7328 209.671 45.3088C210.183 45.8848 211.143 46.3489 212.551 46.7009L215.191 47.3728C217.303 47.8848 218.855 48.7169 219.847 49.8689C220.839 51.0209 221.335 52.5088 221.335 54.3328C221.335 55.6448 221.047 56.8448 220.471 57.9328C219.927 58.9888 219.031 59.8208 217.783 60.4288C216.567 61.0368 214.919 61.3409 212.839 61.3409C211.463 61.3409 210.087 61.1969 208.711 60.9089C207.367 60.6209 205.975 60.1568 204.535 59.5168L205.591 56.2528C206.967 56.7968 208.215 57.1969 209.335 57.4529C210.455 57.7089 211.591 57.8368 212.743 57.8368Z" fill="#1C1B1F"/>
<path d="M195.19 55.1009V25.3409H199.126V54.9089C199.126 55.7729 199.254 56.4289 199.51 56.8769C199.798 57.2929 200.358 57.5009 201.19 57.5009H201.958V61.1009H200.854C198.742 61.1009 197.27 60.5409 196.438 59.4209C195.606 58.3009 195.19 56.8609 195.19 55.1009Z" fill="#1C1B1F"/>
<path d="M189.902 61.1009C188.43 61.1009 187.246 60.7648 186.35 60.0928C185.486 59.4208 184.878 58.5888 184.526 57.5968C182.958 58.9728 181.534 59.9488 180.254 60.5248C178.974 61.0688 177.694 61.3409 176.414 61.3409C174.334 61.3409 172.798 60.6689 171.806 59.3249C170.814 57.9809 170.318 56.3329 170.318 54.3809C170.318 53.0689 170.558 51.9008 171.038 50.8768C171.518 49.8528 172.334 49.0528 173.486 48.4768C174.638 47.8688 176.19 47.5648 178.142 47.5648C179.006 47.5648 179.95 47.6289 180.974 47.7569C181.998 47.8529 183.038 47.9808 184.094 48.1408V44.9249C184.094 43.1329 183.694 41.9168 182.894 41.2768C182.126 40.6048 180.99 40.2688 179.486 40.2688C177.438 40.2688 175.15 40.8288 172.622 41.9488L171.374 38.6848C172.846 38.0128 174.254 37.5008 175.598 37.1488C176.942 36.7969 178.302 36.6208 179.678 36.6208C181.918 36.6208 183.63 36.9888 184.814 37.7248C185.998 38.4608 186.814 39.4368 187.262 40.6528C187.71 41.8688 187.934 43.1968 187.934 44.6368V54.9089C187.934 55.6449 188.078 56.2688 188.366 56.7808C188.654 57.2608 189.23 57.5008 190.094 57.5008H190.622V61.1009H189.902ZM174.206 54.3328C174.206 55.4208 174.462 56.3008 174.974 56.9728C175.486 57.6448 176.222 57.9809 177.182 57.9809C178.014 57.9809 178.974 57.7408 180.062 57.2608C181.15 56.7488 182.494 55.7408 184.094 54.2368V51.2128C181.918 50.8608 179.998 50.6848 178.334 50.6848C176.862 50.6848 175.806 50.9888 175.166 51.5968C174.526 52.2048 174.206 53.1168 174.206 54.3328Z" fill="#1C1B1F"/>
<path d="M165.241 31.2928H160.825V26.8768H165.241V31.2928ZM165.001 60.8608H161.065V37.1008H165.001V60.8608Z" fill="#1C1B1F"/>
<path d="M156.846 59.9968C155.054 60.8928 153.15 61.3408 151.134 61.3408C149.406 61.3408 148.046 60.9888 147.054 60.2848C146.094 59.5808 145.406 58.6368 144.99 57.4528C144.606 56.2688 144.414 54.9568 144.414 53.5168V40.5568H140.286V37.1008H144.414V30.4768H148.35V37.1008H156.126V40.5568H148.35V53.3728C148.35 55.0368 148.622 56.1888 149.166 56.8288C149.742 57.4368 150.622 57.7408 151.806 57.7408C152.382 57.7408 152.974 57.6768 153.582 57.5488C154.222 57.3888 154.91 57.1328 155.646 56.7808L156.846 59.9968Z" fill="#1C1B1F"/>
<path d="M128.752 40.3168C127.856 40.3168 126.8 40.5408 125.584 40.9888C124.4 41.4368 122.96 42.3488 121.264 43.7248V60.8608H117.328V37.1008H121.072V40.4128C122.768 38.9728 124.304 37.9808 125.68 37.4368C127.088 36.8928 128.432 36.6208 129.712 36.6208C131.92 36.6208 133.6 37.3249 134.752 38.7328C135.936 40.1088 136.528 42.0768 136.528 44.6368V60.8608H132.592V45.2128C132.592 41.9488 131.312 40.3168 128.752 40.3168Z" fill="#1C1B1F"/>
<path d="M111.333 59.4688C109.893 60.1728 108.453 60.6529 107.013 60.9089C105.573 61.1969 104.245 61.3409 103.029 61.3409C99.605 61.3409 97.045 60.3648 95.349 58.4128C93.685 56.4608 92.853 53.7889 92.853 50.3969V47.5168C92.853 44.2208 93.685 41.5808 95.349 39.5968C97.045 37.6128 99.429 36.6208 102.501 36.6208C104.133 36.6208 105.621 36.9569 106.965 37.6288C108.341 38.2688 109.429 39.2609 110.229 40.6049C111.061 41.9169 111.477 43.6128 111.477 45.6928C111.477 47.0368 111.285 48.5728 110.901 50.3008H96.741V50.3969C96.741 52.8289 97.237 54.6688 98.229 55.9168C99.253 57.1648 100.885 57.7888 103.125 57.7888C104.149 57.7888 105.269 57.6609 106.485 57.4049C107.733 57.1488 108.949 56.7488 110.133 56.2048L111.333 59.4688ZM102.501 40.0768C100.645 40.0768 99.237 40.6848 98.277 41.9008C97.349 43.0848 96.837 44.7648 96.741 46.9408H107.493C107.589 46.3648 107.637 45.8208 107.637 45.3088C107.637 43.5168 107.125 42.2048 106.101 41.3728C105.109 40.5088 103.909 40.0768 102.501 40.0768Z" fill="#1C1B1F"/>
<path d="M80.1968 57.8368C83.3968 57.8368 84.9968 56.7488 84.9968 54.5728C84.9968 53.6448 84.7088 52.9088 84.1328 52.3648C83.5568 51.8208 82.5008 51.3568 80.9648 50.9728L78.3248 50.3008C76.3728 49.8208 74.9168 48.9888 73.9568 47.8048C72.9968 46.5888 72.5168 45.1488 72.5168 43.4848C72.5168 42.2688 72.7888 41.1488 73.3328 40.1248C73.8768 39.0688 74.7408 38.2208 75.9248 37.5808C77.1088 36.9408 78.6448 36.6208 80.5328 36.6208C81.7488 36.6208 82.9808 36.7648 84.2288 37.0528C85.5088 37.3088 86.8048 37.7569 88.1168 38.3969L86.8688 41.7088C84.5328 40.6528 82.4208 40.1248 80.5328 40.1248C77.7488 40.1248 76.3568 41.1649 76.3568 43.2449C76.3568 44.0449 76.6128 44.7328 77.1248 45.3088C77.6368 45.8848 78.5968 46.3489 80.0048 46.7009L82.6448 47.3728C84.7568 47.8848 86.3088 48.7169 87.3008 49.8689C88.2928 51.0209 88.7888 52.5088 88.7888 54.3328C88.7888 55.6448 88.5008 56.8448 87.9248 57.9328C87.3808 58.9888 86.4848 59.8208 85.2368 60.4288C84.0208 61.0368 82.3728 61.3409 80.2928 61.3409C78.9168 61.3409 77.5408 61.1969 76.1648 60.9089C74.8208 60.6209 73.4288 60.1568 71.9888 59.5168L73.0448 56.2528C74.4208 56.7968 75.6688 57.1969 76.7888 57.4529C77.9088 57.7089 79.0448 57.8368 80.1968 57.8368Z" fill="#1C1B1F"/>
<path d="M60.4849 57.8368C63.6849 57.8368 65.2849 56.7488 65.2849 54.5728C65.2849 53.6448 64.9969 52.9088 64.4209 52.3648C63.8449 51.8208 62.7889 51.3568 61.2529 50.9728L58.6129 50.3008C56.6609 49.8208 55.2049 48.9888 54.2449 47.8048C53.2849 46.5888 52.8049 45.1488 52.8049 43.4848C52.8049 42.2688 53.0769 41.1488 53.6209 40.1248C54.1649 39.0688 55.0289 38.2208 56.2129 37.5808C57.3969 36.9408 58.9329 36.6208 60.8209 36.6208C62.0369 36.6208 63.2689 36.7648 64.5169 37.0528C65.7969 37.3088 67.0929 37.7569 68.4049 38.3969L67.1569 41.7088C64.8209 40.6528 62.7089 40.1248 60.8209 40.1248C58.0369 40.1248 56.6449 41.1649 56.6449 43.2449C56.6449 44.0449 56.9009 44.7328 57.4129 45.3088C57.9249 45.8848 58.8849 46.3489 60.2929 46.7009L62.9329 47.3728C65.0449 47.8848 66.5969 48.7169 67.5889 49.8689C68.5809 51.0209 69.0769 52.5088 69.0769 54.3328C69.0769 55.6448 68.7889 56.8448 68.2129 57.9328C67.6689 58.9888 66.7729 59.8208 65.5249 60.4288C64.3089 61.0368 62.6609 61.3409 60.5809 61.3409C59.2049 61.3409 57.8289 61.1969 56.4529 60.9089C55.1089 60.6209 53.7169 60.1568 52.2769 59.5168L53.3329 56.2528C54.7089 56.7968 55.9569 57.1969 57.0769 57.4529C58.1969 57.7089 59.3329 57.8368 60.4849 57.8368Z" fill="#1C1B1F"/>
<path d="M49.241 56.9728V60.8608H31.001V28.2208H48.761V32.1568H35.177V42.3808H47.321V46.3168H35.177V56.9728H49.241Z" fill="#1C1B1F"/>
<path d="M49.4924 20.1161C48.4916 20.1161 47.609 19.9555 46.8445 19.6342C46.08 19.3129 45.4336 18.8799 44.9054 18.3351C44.3772 17.7764 43.9742 17.1478 43.6962 16.4494C43.4321 15.751 43.3 15.0247 43.3 14.2704V13.8304C43.3 13.0482 43.439 12.3078 43.717 11.6094C44.0089 10.897 44.419 10.2685 44.9471 9.72371C45.4892 9.16498 46.1425 8.73196 46.907 8.42466C47.6715 8.10339 48.5333 7.94275 49.4924 7.94275C50.4515 7.94275 51.3133 8.10339 52.0778 8.42466C52.8423 8.73196 53.4886 9.16498 54.0168 9.72371C54.5589 10.2685 54.969 10.897 55.247 11.6094C55.525 12.3078 55.664 13.0482 55.664 13.8304V14.2704C55.664 15.0247 55.525 15.751 55.247 16.4494C54.9829 17.1478 54.5867 17.7764 54.0585 18.3351C53.5303 18.8799 52.884 19.3129 52.1195 19.6342C51.355 19.9555 50.4793 20.1161 49.4924 20.1161ZM49.4924 17.6228C50.2013 17.6228 50.799 17.4691 51.2855 17.1618C51.772 16.8405 52.1403 16.4145 52.3905 15.8837C52.6407 15.3389 52.7658 14.7243 52.7658 14.0399C52.7658 13.3415 52.6338 12.7269 52.3697 12.1961C52.1195 11.6513 51.7442 11.2253 51.2438 10.918C50.7573 10.5967 50.1735 10.4361 49.4924 10.4361C48.8113 10.4361 48.2206 10.5967 47.7202 10.918C47.2337 11.2253 46.8584 11.6513 46.5943 12.1961C46.3302 12.7269 46.1981 13.3415 46.1981 14.0399C46.1981 14.7243 46.3232 15.3389 46.5734 15.8837C46.8375 16.4145 47.2128 16.8405 47.6993 17.1618C48.1858 17.4691 48.7835 17.6228 49.4924 17.6228Z" fill="#1C1B1F"/>
<path d="M11.8592 0.86084C10.7077 0.86084 9.77427 1.79891 9.77427 2.95608C9.77427 4.11325 10.7077 5.05132 11.8592 5.05132C15.6016 5.05132 18.6354 8.10004 18.6354 11.8608C18.6354 15.6216 15.6016 18.6704 11.8592 18.6704C8.11686 18.6704 5.08305 15.6216 5.08305 11.8608C5.08305 10.3862 5.54711 9.02669 6.33674 7.91364C7.00519 6.97141 6.78699 5.66302 5.84937 4.99128C4.91175 4.31954 3.60977 4.53882 2.94131 5.48106C1.66454 7.28076 0.913086 9.48572 0.913086 11.8608C0.913086 17.936 5.81385 22.8608 11.8592 22.8608C17.9046 22.8608 22.8054 17.936 22.8054 11.8608C22.8054 5.78571 17.9046 0.86084 11.8592 0.86084Z" fill="url(#paint0_linear_358_248)"/>
<path fill-rule="evenodd" clip-rule="evenodd" d="M29.8943 4.31797V19.718H32.855V14.6056H35.5447C35.5664 14.6056 35.5881 14.6055 35.6097 14.6054L39.1934 19.718H42.6544L38.5982 14.1066C38.6371 14.0917 38.6756 14.0764 38.7138 14.0608C39.6034 13.6977 40.2915 13.1529 40.778 12.4265C41.2784 11.7002 41.5285 10.7713 41.5285 9.63987V9.30464C41.5285 8.18718 41.2853 7.25829 40.7988 6.51797C40.3123 5.77765 39.6173 5.22591 38.7138 4.86273C37.8242 4.49956 36.7678 4.31797 35.5447 4.31797H32.855H31.9793H29.8943ZM32.855 6.85321V12.1961H35.8574C36.3995 12.1961 36.8651 12.0843 37.2543 11.8608C37.6574 11.6373 37.9702 11.323 38.1926 10.918C38.415 10.5129 38.5262 10.0519 38.5262 9.53511C38.5262 9.00432 38.415 8.53638 38.1926 8.1313C37.9702 7.72622 37.6574 7.41194 37.2543 7.18845C36.8651 6.96495 36.3995 6.85321 35.8574 6.85321H32.855ZM37.8381 13.0551H34.523L35.6097 14.6054C35.6641 14.6051 35.7183 14.6045 35.772 14.6035C36.8476 14.5832 37.7896 14.4175 38.5982 14.1066L37.8381 13.0551Z" fill="#1C1B1F"/>
<path d="M37.8381 13.0551H34.523L35.6097 14.6054C35.6641 14.6051 35.7183 14.6045 35.772 14.6035C36.8476 14.5832 37.7896 14.4175 38.5982 14.1066L37.8381 13.0551Z" fill="#1C1B1F"/>
<path fill-rule="evenodd" clip-rule="evenodd" d="M58.5978 18.7751C59.3206 19.6412 60.3353 20.0742 61.6418 20.0742H61.767C62.6426 20.0742 63.3724 19.8786 63.9562 19.4875C64.54 19.0964 64.9778 18.5167 65.2697 17.7485C65.3504 17.5362 65.4199 17.3096 65.4782 17.0686V19.718H67.7717V8.31988H64.8736V15.0456C64.8736 15.7859 64.6581 16.3726 64.2272 16.8056C63.8102 17.2386 63.2681 17.4551 62.6009 17.4551C61.9338 17.4551 61.4056 17.2526 61.0164 16.8475C60.6272 16.4285 60.4326 15.8697 60.4326 15.1713V8.31988H57.5344V14.9199C57.5344 16.624 57.8889 17.9091 58.5978 18.7751ZM65.7076 14.878C65.7076 15.6654 65.6386 16.3638 65.5006 16.973C65.4934 17.0051 65.4859 17.037 65.4782 17.0686V14.878H65.7076Z" fill="#1C1B1F"/>
<path d="M65.7076 14.878H65.4782V17.0686C65.4859 17.037 65.4934 17.0051 65.5006 16.973C65.6386 16.3638 65.7076 15.6654 65.7076 14.878Z" fill="#1C1B1F"/>
<path fill-rule="evenodd" clip-rule="evenodd" d="M70.6838 8.34083V19.718H73.5819V13.0342C73.5819 12.2938 73.7974 11.7072 74.2283 11.2742C74.6731 10.8272 75.2499 10.6037 75.9588 10.6037C76.6538 10.6037 77.1959 10.8202 77.5851 11.2532C77.9882 11.6862 78.1897 12.2519 78.1897 12.9504V19.718H81.0879V13.2018C81.0879 11.4697 80.7404 10.1707 80.0454 9.30464C79.3504 8.42464 78.3287 7.98464 76.9804 7.98464H76.8554C75.9519 7.98464 75.1943 8.18019 74.5827 8.5713C73.985 8.96241 73.5333 9.54908 73.2275 10.3313C73.1279 10.5816 73.0445 10.8527 72.9773 11.1445V8.34083H70.6838ZM72.7688 13.2227C72.7688 12.4981 72.8285 11.8499 72.948 11.2781C72.9574 11.2331 72.9671 11.1885 72.9773 11.1445V13.2227H72.7688Z" fill="#1C1B1F"/>
<path d="M72.7688 13.2227H72.9773V11.1445C72.9671 11.1885 72.9574 11.2331 72.948 11.2781C72.8285 11.8499 72.7688 12.4981 72.7688 13.2227Z" fill="#1C1B1F"/>
<path fill-rule="evenodd" clip-rule="evenodd" d="M86.2886 19.6552C86.9558 19.9485 87.6855 20.0951 88.4778 20.0951C89.3674 20.0951 90.1597 19.9066 90.8547 19.5294C91.5636 19.1383 92.1335 18.5586 92.5644 17.7904C92.6399 17.6534 92.7094 17.5106 92.7729 17.362V19.718H95.0664V4.42277H92.1683V9.96191C91.7897 9.35632 91.3102 8.8928 90.7296 8.57134C90.0624 8.18023 89.284 7.98468 88.3944 7.98468C87.5882 7.98468 86.8516 8.13833 86.1844 8.44563C85.5311 8.73896 84.9681 9.15102 84.4955 9.68182C84.0368 10.2126 83.6754 10.8342 83.4113 11.5466C83.1611 12.259 83.036 13.0202 83.036 13.8304V14.2704C83.036 15.0945 83.1681 15.8628 83.4322 16.5752C83.6963 17.2736 84.0716 17.8882 84.5581 18.419C85.0446 18.9498 85.6214 19.3618 86.2886 19.6552ZM92.1683 12.1752V9.96191C92.2338 10.0668 92.2964 10.176 92.3559 10.2894C92.759 11.0577 92.9814 12.0215 93.0231 13.1809L92.1683 12.1752ZM90.6879 17.2666C90.2153 17.518 89.6941 17.6437 89.1242 17.6437C88.5126 17.6437 87.9635 17.4971 87.477 17.2037C87.0044 16.9104 86.6292 16.4983 86.3512 15.9675C86.0732 15.4228 85.9342 14.7872 85.9342 14.0609C85.9342 13.3345 86.0662 12.699 86.3303 12.1542C86.6083 11.6094 86.9836 11.1904 87.4562 10.8971C87.9427 10.5898 88.4987 10.4361 89.1242 10.4361C89.6802 10.4361 90.1945 10.5618 90.6671 10.8132C91.1397 11.0507 91.5219 11.3999 91.8138 11.8609C92.1057 12.3079 92.2516 12.8666 92.2516 13.5371V14.3752C92.2516 15.0456 92.1057 15.6323 91.8138 16.1352C91.5358 16.624 91.1605 17.0012 90.6879 17.2666Z" fill="#1C1B1F"/>
<path d="M93.0231 13.1809C92.9814 12.0215 92.759 11.0577 92.3559 10.2894C92.2964 10.176 92.2338 10.0668 92.1683 9.96191V12.1752L93.0231 13.1809Z" fill="#1C1B1F"/>
<path fill-rule="evenodd" clip-rule="evenodd" d="M100.45 19.6132C101.187 19.9485 102.042 20.1161 103.015 20.1161C103.946 20.1161 104.773 19.9555 105.496 19.6342C106.233 19.3129 106.837 18.8589 107.31 18.2723C107.782 17.6856 108.102 17.0012 108.269 16.2189H105.6C105.475 16.638 105.19 16.9942 104.745 17.2875C104.3 17.5669 103.724 17.7066 103.015 17.7066C102.306 17.7066 101.722 17.5529 101.263 17.2456C100.805 16.9243 100.464 16.4913 100.242 15.9466C100.094 15.5754 99.9953 15.1703 99.9457 14.7313H108.457V13.6837C108.457 12.678 108.248 11.7421 107.831 10.8761C107.414 9.99609 106.789 9.29069 105.955 8.7599C105.134 8.21514 104.113 7.94275 102.89 7.94275C101.958 7.94275 101.138 8.11037 100.429 8.44561C99.7204 8.76688 99.1227 9.20688 98.6362 9.76561C98.1636 10.3104 97.8022 10.9389 97.552 11.6513C97.3157 12.3497 97.1976 13.0761 97.1976 13.8304V14.2285C97.1976 14.9548 97.3157 15.6672 97.552 16.3656C97.8022 17.064 98.1636 17.6996 98.6362 18.2723C99.1227 18.831 99.7274 19.278 100.45 19.6132ZM99.9951 12.9504H105.688C105.637 12.5882 105.552 12.2599 105.433 11.9656C105.225 11.4488 104.905 11.0507 104.474 10.7713C104.057 10.492 103.529 10.3523 102.89 10.3523C102.25 10.3523 101.708 10.4989 101.263 10.7923C100.819 11.0856 100.478 11.5116 100.242 12.0704C100.133 12.3369 100.051 12.6303 99.9951 12.9504ZM99.9951 12.9504H98.4277V14.7313H99.9457C99.9439 14.716 99.9423 14.7007 99.9407 14.6852C99.9189 14.4776 99.9081 14.2625 99.9081 14.0399C99.9081 13.6476 99.9371 13.2844 99.9951 12.9504Z" fill="#1C1B1F"/>
<path d="M98.4277 12.9504V14.7313H99.9457L99.9407 14.6852C99.9189 14.4776 99.9081 14.2625 99.9081 14.0399C99.9081 13.6476 99.9371 13.2844 99.9951 12.9504H98.4277Z" fill="#1C1B1F"/>
<path fill-rule="evenodd" clip-rule="evenodd" d="M112.963 19.6552C113.63 19.9485 114.359 20.0951 115.152 20.0951C116.041 20.0951 116.834 19.9066 117.529 19.5294C118.238 19.1383 118.807 18.5586 119.238 17.7904C119.314 17.6534 119.383 17.5106 119.447 17.362V19.718H121.74V4.42277H118.842V9.96193C118.464 9.35633 117.984 8.8928 117.404 8.57134C116.736 8.18023 115.958 7.98468 115.068 7.98468C114.262 7.98468 113.525 8.13833 112.858 8.44563C112.205 8.73896 111.642 9.15102 111.169 9.68182C110.711 10.2126 110.349 10.8342 110.085 11.5466C109.835 12.259 109.71 13.0202 109.71 13.8304V14.2704C109.71 15.0945 109.842 15.8628 110.106 16.5752C110.37 17.2736 110.745 17.8882 111.232 18.419C111.718 18.9498 112.295 19.3618 112.963 19.6552ZM118.842 12.1752V9.96193C118.908 10.0668 118.97 10.176 119.03 10.2894C119.433 11.0577 119.655 12.0215 119.697 13.1809L118.842 12.1752ZM117.362 17.2666C116.889 17.518 116.368 17.6437 115.798 17.6437C115.186 17.6437 114.637 17.4971 114.151 17.2037C113.678 16.9104 113.303 16.4983 113.025 15.9675C112.747 15.4228 112.608 14.7872 112.608 14.0609C112.608 13.3345 112.74 12.699 113.004 12.1542C113.282 11.6094 113.657 11.1904 114.13 10.8971C114.617 10.5898 115.173 10.4361 115.798 10.4361C116.354 10.4361 116.868 10.5618 117.341 10.8132C117.814 11.0507 118.196 11.3999 118.488 11.8609C118.78 12.3079 118.926 12.8666 118.926 13.5371V14.3752C118.926 15.0456 118.78 15.6323 118.488 16.1352C118.21 16.624 117.834 17.0012 117.362 17.2666Z" fill="#1C1B1F"/>
<path d="M119.697 13.1809C119.655 12.0215 119.433 11.0577 119.03 10.2894C118.97 10.176 118.908 10.0668 118.842 9.96193V12.1752L119.697 13.1809Z" fill="#1C1B1F"/>
<path fill-rule="evenodd" clip-rule="evenodd" d="M128.006 4.43154V19.3583H129.603V17.5589H130.013V19.3583H136.443V17.5589H130.013V4.43154H128.006Z" fill="#1C1B1F"/>
<path d="M129.603 19.3583H130.013V17.5589H129.603V19.3583Z" fill="#1C1B1F"/>
<path fill-rule="evenodd" clip-rule="evenodd" d="M138.981 9.99329V19.3583H140.946V9.99329H138.981ZM138.981 8.43927V9.99329H137.301V8.43927H138.981ZM138.55 6.33317C138.769 6.56491 139.097 6.68078 139.533 6.68078C139.97 6.68078 140.291 6.56491 140.496 6.33317C140.714 6.10143 140.823 5.80835 140.823 5.45392C140.823 5.0995 140.714 4.80641 140.496 4.57467C140.291 4.34293 139.97 4.22706 139.533 4.22706C139.097 4.22706 138.769 4.34293 138.55 4.57467C138.346 4.80641 138.243 5.0995 138.243 5.45392C138.243 5.80835 138.346 6.10143 138.55 6.33317Z" fill="#1C1B1F"/>
<path d="M140.946 8.43927H138.981V9.99329H140.946V8.43927Z" fill="#1C1B1F"/>
<path fill-rule="evenodd" clip-rule="evenodd" d="M142.945 8.43927L146.672 19.3583H147.163H148.105H148.638L148.353 18.5058L148.557 17.8043H149.539V19.3583H149.969L153.204 8.43927H151.279L148.557 17.8043H148.119L144.993 8.43927H142.945Z" fill="#1C1B1F"/>
<path d="M149.539 19.3583V17.8043H148.557L148.353 18.5058L148.638 19.3583H149.539Z" fill="#1C1B1F"/>
<path fill-rule="evenodd" clip-rule="evenodd" d="M157.337 19.2356C158.033 19.5628 158.859 19.7264 159.814 19.7264C160.674 19.7264 161.446 19.5832 162.128 19.297C162.811 19.0107 163.377 18.5949 163.828 18.0497C164.278 17.5044 164.579 16.8569 164.729 16.1071H162.886C162.777 16.6115 162.449 17.0545 161.903 17.4362C161.371 17.8179 160.674 18.0088 159.814 18.0088C158.995 18.0088 158.32 17.8315 157.787 17.4771C157.255 17.1091 156.859 16.6183 156.6 16.0049C156.393 15.4784 156.274 14.899 156.24 14.2668H164.913V13.3876C164.913 12.4743 164.722 11.6155 164.34 10.8112C163.971 10.0069 163.398 9.3526 162.62 8.84823C161.855 8.33022 160.879 8.07121 159.692 8.07121C158.777 8.07121 157.978 8.2348 157.296 8.56196C156.627 8.87549 156.074 9.30489 155.637 9.85016C155.2 10.3818 154.873 10.9816 154.654 11.6495C154.45 12.3175 154.347 13.0059 154.347 13.7148V14.0828C154.347 14.778 154.45 15.4596 154.654 16.1276C154.873 16.7955 155.2 17.4021 155.637 17.9474C156.074 18.4791 156.641 18.9085 157.337 19.2356ZM156.318 12.7946H162.981C162.925 12.3479 162.818 11.9457 162.661 11.5882C162.415 11.0157 162.046 10.5726 161.555 10.2591C161.063 9.94558 160.442 9.78881 159.692 9.78881C158.913 9.78881 158.265 9.96603 157.746 10.3205C157.241 10.6749 156.859 11.1588 156.6 11.7722C156.473 12.0878 156.379 12.4286 156.318 12.7946ZM156.318 12.7946H155.207V14.2668H156.24C156.24 14.2637 156.24 14.2606 156.24 14.2575C156.234 14.1398 156.231 14.0202 156.231 13.8988C156.231 13.5082 156.26 13.1402 156.318 12.7946Z" fill="#1C1B1F"/>
<path d="M155.207 12.7946V14.2668H156.24L156.24 14.2575C156.234 14.1398 156.231 14.0202 156.231 13.8988C156.231 13.5082 156.26 13.1402 156.318 12.7946H155.207Z" fill="#1C1B1F"/>
</g>
<defs>
<linearGradient id="paint0_linear_358_248" x1="111.124" y1="0.86084" x2="111.124" y2="61.3409" gradientUnits="userSpaceOnUse">
<stop stop-color="#01B3FF"/>
<stop offset="1" stop-color="#0167CD"/>
</linearGradient>
<clipPath id="clip0_358_248">
<rect width="220.422" height="60.48" fill="white" transform="translate(0.913086 0.86084)"/>
</clipPath>
</defs>
</svg>
